<?xml version="1.0" standalone="no"?>
<!DOCTYPE svg PUBLIC "-//W3C//DTD SVG 20010904//EN"
 "http://www.w3.org/TR/2001/REC-SVG-20010904/DTD/svg10.dtd">
<svg version="1.0" xmlns="http://www.w3.org/2000/svg"
 width="1024.000000pt" height="1022.000000pt" viewBox="0 0 1024.000000 1022.000000"
 preserveAspectRatio="xMidYMid meet">

<g transform="translate(0.000000,1022.000000) scale(0.100000,-0.100000)"
fill="#000000" stroke="none">
<path d="M1590 10085 l0 -44 -127 -3 -128 -3 -3 -357 -2 -358 110 0 c91 0 110
3 110 15 0 12 -17 15 -95 15 l-95 0 0 326 0 326 130 -3 130 -4 -6 58 -7 57
107 0 106 0 0 -43 c0 -24 5 -48 12 -55 8 -8 45 -12 100 -12 l88 0 0 -325 0
-324 -92 -3 c-58 -2 -93 -7 -95 -15 -5 -13 138 -20 305 -15 80 3 102 6 102 18
0 11 -19 14 -95 14 l-95 0 0 326 0 326 130 -3 129 -4 -6 58 -6 57 107 0 106 0
0 -43 c0 -24 5 -48 12 -55 8 -8 45 -12 100 -12 l88 0 0 -325 0 -325 -95 0
c-75 0 -95 -3 -95 -14 0 -16 127 -23 308 -18 80 3 102 6 102 18 0 11 -19 14
-95 14 l-95 0 0 326 0 326 130 -3 129 -4 -6 58 -6 57 107 0 106 0 0 -43 c0
-24 5 -48 12 -55 8 -8 45 -12 100 -12 l88 0 0 -325 0 -325 -95 0 c-76 0 -95
-3 -95 -14 0 -12 22 -15 103 -18 180 -5 307 2 307 18 0 11 -20 14 -95 14 l-95
0 0 326 0 326 125 -3 125 -4 0 58 0 57 105 0 105 0 0 -39 c0 -70 2 -71 106
-71 l94 0 0 -325 0 -325 -95 0 c-76 0 -95 -3 -95 -14 0 -12 22 -15 103 -18
166 -5 309 2 304 15 -2 8 -37 13 -95 15 l-92 3 0 325 0 326 125 -3 125 -4 0
58 0 57 105 0 105 0 0 -39 c0 -70 2 -71 106 -71 l94 0 0 -325 0 -325 -95 0
c-78 0 -95 -3 -95 -15 0 -12 19 -15 110 -15 l110 0 -2 358 -3 357 -102 3 -103
3 0 44 0 45 -125 0 -125 0 0 -45 0 -45 -220 0 -220 0 0 45 0 45 -125 0 -125 0
0 -45 0 -45 -220 0 -220 0 0 45 0 45 -125 0 -125 0 0 -45 0 -45 -220 0 -220 0
0 45 0 45 -125 0 -125 0 0 -45 0 -45 -220 0 -220 0 0 45 0 45 -125 0 -125 0 0
-45z"/>
<path d="M187 10083 c-4 -3 -7 -62 -7 -130 l0 -123 -45 0 -45 0 0 -125 0 -125
45 0 45 0 0 -220 0 -220 -45 0 -45 0 0 -125 0 -125 45 0 45 0 0 -220 0 -220
-45 0 -45 0 0 -125 0 -125 45 0 45 0 0 -220 0 -220 -45 0 -45 0 0 -125 0 -125
45 0 45 0 0 -220 0 -220 -45 0 -45 0 0 -125 0 -125 45 0 45 0 0 -220 0 -220
-45 0 -45 0 0 -125 0 -125 45 0 45 0 0 -220 0 -220 -45 0 -45 0 0 -125 0 -125
45 0 45 0 0 -220 0 -220 -45 0 -45 0 0 -125 0 -125 45 0 45 0 0 -220 0 -220
-45 0 -45 0 0 -120 0 -120 45 0 45 0 0 -105 0 -105 360 0 360 0 0 111 c0 84
-3 110 -13 107 -8 -3 -13 -34 -15 -96 l-3 -92 -324 0 -325 0 0 88 c0 55 -4 92
-12 100 -7 7 -31 12 -55 12 l-43 0 0 100 0 100 58 0 57 0 -4 125 -3 125 326 0
326 0 0 -90 c0 -71 3 -90 14 -90 12 0 15 21 18 100 6 180 -2 300 -18 300 -11
0 -14 -19 -14 -90 l0 -90 -325 0 -325 0 0 89 c0 99 -1 101 -71 101 l-39 0 0
105 0 105 115 0 115 0 0 -120 c0 -100 3 -120 15 -120 13 0 15 22 15 135 l0
135 -75 0 -75 0 0 110 0 110 325 0 325 0 2 -192 c2 -137 6 -192 15 -195 9 -3
13 47 15 199 4 301 0 408 -18 408 -11 0 -14 -19 -14 -90 l0 -90 -325 0 -325 0
0 89 c0 99 -1 101 -71 101 l-39 0 0 105 0 105 58 0 57 0 -4 125 -3 125 326 0
325 0 3 -92 c2 -58 7 -93 15 -95 13 -5 20 138 15 305 -3 80 -6 102 -18 102
-11 0 -14 -19 -14 -95 l0 -95 -325 0 -325 0 0 94 c0 104 -1 106 -71 106 l-39
0 0 105 0 105 58 0 57 0 -4 125 -3 125 326 0 325 0 3 -92 c2 -58 7 -93 15 -95
13 -5 20 138 15 305 -3 80 -6 102 -18 102 -11 0 -14 -19 -14 -95 l0 -95 -325
0 -325 0 0 94 c0 104 -1 106 -71 106 l-39 0 0 106 0 107 58 -6 57 -6 -4 129
-3 130 326 0 326 0 0 -95 c0 -75 3 -95 14 -95 16 0 23 127 18 308 -3 80 -6
102 -18 102 -11 0 -14 -19 -14 -95 l0 -95 -325 0 -325 0 0 88 c0 55 -4 92 -12
100 -7 7 -31 12 -55 12 l-43 0 0 106 0 107 58 -6 57 -6 -4 129 -3 130 326 0
326 0 0 -95 c0 -75 3 -95 14 -95 11 0 15 23 18 103 5 168 -2 309 -15 304 -8
-2 -13 -36 -15 -95 l-3 -92 -324 0 -325 0 0 88 c0 55 -4 92 -12 100 -7 7 -31
12 -55 12 l-43 0 0 106 0 107 58 -7 57 -6 -4 130 -3 130 326 0 326 0 0 -95 c0
-75 3 -95 14 -95 11 0 15 23 18 103 5 168 -2 309 -15 304 -8 -2 -13 -36 -15
-95 l-3 -92 -324 0 -325 0 0 88 c0 55 -4 92 -12 100 -7 7 -31 12 -55 12 l-43
0 0 106 0 107 58 -7 57 -6 -4 125 -3 125 326 0 326 0 0 -90 c0 -71 3 -90 14
-90 11 0 15 23 18 103 5 168 -2 309 -15 304 -8 -2 -13 -36 -15 -95 l-3 -92
-324 0 -325 0 0 88 c0 55 -4 92 -12 100 -7 7 -31 12 -55 12 l-43 0 0 100 0
100 58 0 57 0 -4 125 -3 125 326 0 326 0 0 -90 c0 -73 3 -90 15 -90 12 0 15
19 15 110 l0 110 -353 0 c-195 0 -357 -3 -360 -7z"/>
<path d="M5300 9980 c0 -91 3 -110 15 -110 12 0 15 17 15 95 l0 95 330 0 330
0 0 -94 c0 -105 1 -106 71 -106 l40 0 -3 -102 -3 -103 -59 0 c-38 0 -61 -4
-63 -12 -3 -7 0 -13 6 -13 7 0 11 -38 11 -110 l0 -110 -330 0 -330 0 0 90 c0
73 -3 90 -15 90 -13 0 -15 -29 -15 -205 0 -176 2 -205 15 -205 12 0 15 17 15
95 l0 95 330 0 330 0 0 -94 c0 -104 1 -106 71 -106 l39 0 0 -99 c0 -55 -4
-102 -9 -105 -5 -3 -52 -3 -105 1 l-96 6 0 117 c0 64 -4 120 -9 125 -5 6 -11
21 -13 35 -3 28 -38 36 -46 10 -4 -12 -2 -13 9 -2 7 6 17 12 21 12 13 0 9 -28
-4 -33 -10 -4 -10 -6 0 -6 17 -1 15 -31 -2 -31 -8 0 -17 6 -19 13 -4 9 -6 9
-6 -1 -1 -8 8 -16 19 -19 19 -5 20 -14 20 -129 l0 -124 65 0 65 0 0 -110 0
-110 -330 0 -330 0 0 180 c0 153 -2 180 -15 180 -13 0 -15 -39 -15 -290 0
-251 2 -290 15 -290 12 0 15 17 15 90 l0 90 330 0 329 0 3 -92 3 -93 50 -5 50
-5 3 -102 3 -103 -66 0 c-60 0 -80 -9 -55 -25 6 -4 10 -53 10 -116 l0 -109
-330 0 -330 0 0 96 c0 72 -3 95 -12 92 -10 -4 -14 -56 -16 -206 -2 -175 0
-202 13 -202 12 0 15 16 15 90 l0 90 330 0 329 0 3 -92 3 -93 50 -5 50 -5 3
-102 3 -103 -66 0 c-60 0 -80 -9 -55 -25 6 -4 10 -53 10 -116 l0 -109 -330 0
-330 0 0 95 c0 78 -3 95 -15 95 -13 0 -15 -29 -15 -205 0 -173 2 -205 15 -205
11 0 15 19 17 93 l3 92 327 3 327 2 3 -97 3 -98 50 -5 50 -5 3 -102 3 -103
-66 0 c-60 0 -80 -9 -55 -25 6 -4 10 -53 10 -116 l0 -109 -330 0 -330 0 0 95
c0 78 -3 95 -15 95 -13 0 -15 -29 -15 -205 0 -176 2 -205 15 -205 12 0 15 17
15 95 l0 95 330 0 329 0 3 -97 3 -98 53 -3 52 -3 0 -105 0 -104 -65 0 c-60 0
-80 -9 -55 -25 6 -3 10 -52 10 -111 l0 -104 -330 0 -330 0 0 90 c0 73 -3 90
-15 90 -13 0 -15 -29 -15 -200 0 -171 2 -200 15 -200 12 0 15 17 15 90 l0 90
330 0 330 0 0 -89 c0 -99 1 -101 71 -101 l39 0 0 -106 0 -107 -60 6 c-40 5
-61 3 -66 -5 -4 -7 -2 -14 4 -16 8 -2 12 -39 12 -118 l0 -114 -330 0 -330 0 0
95 c0 78 -3 95 -15 95 -13 0 -15 -29 -15 -205 0 -176 2 -205 15 -205 12 0 15
17 15 95 l0 95 330 0 330 0 0 -94 c0 -105 1 -106 71 -106 l40 0 -3 -102 -3
-103 -59 0 c-38 0 -61 -4 -63 -12 -3 -7 0 -13 6 -13 7 0 11 -39 11 -115 l0
-115 -330 0 -330 0 0 95 c0 78 -3 95 -15 95 -13 0 -15 -29 -15 -205 0 -176 2
-205 15 -205 12 0 15 17 15 95 l0 95 330 0 330 0 0 -94 c0 -105 1 -106 71
-106 l40 0 -3 -102 -3 -103 -59 0 c-38 0 -61 -4 -63 -12 -3 -7 0 -13 6 -13 7
0 11 -39 11 -115 l0 -115 -330 0 -330 0 0 95 c0 78 -3 95 -15 95 -12 0 -15
-19 -15 -110 l0 -110 360 0 360 0 0 129 0 130 48 3 47 3 3 123 3 122 -51 0
-50 0 0 220 0 220 50 0 50 0 0 125 0 125 -50 0 -50 0 0 220 0 220 50 0 50 0 0
125 0 125 -50 0 -50 0 0 215 0 215 50 0 50 0 0 125 0 125 -50 0 -50 0 0 220 0
220 50 0 50 0 0 125 0 125 -50 0 -50 0 0 220 0 220 50 0 51 0 -3 123 -3 122
-47 3 -48 3 0 220 0 219 50 0 51 0 -3 123 -3 122 -47 3 -48 3 0 214 0 214 48
3 47 3 3 123 3 122 -51 0 -50 0 0 219 0 220 48 3 47 3 3 123 3 122 -51 0 -50
0 0 105 0 105 -360 0 -360 0 0 -110z"/>
<path d="M330 9985 c0 -40 2 -45 23 -45 29 0 47 18 47 45 0 27 -18 45 -47 45
-21 0 -23 -5 -23 -45z m55 16 c8 -26 -4 -51 -26 -51 -15 0 -19 7 -19 35 0 28
4 35 19 35 11 0 22 -8 26 -19z"/>
<path d="M525 10020 c-4 -6 -4 -14 -1 -17 3 -4 6 -1 6 5 0 7 7 12 15 12 22 0
18 -28 -5 -42 -29 -18 -25 -38 8 -37 l27 1 -25 7 -24 7 23 16 c13 9 21 24 19
34 -4 22 -33 31 -43 14z"/>
<path d="M590 10006 c0 -17 5 -23 18 -22 9 0 17 -6 17 -14 0 -10 -8 -14 -23
-13 -13 2 -21 -1 -17 -7 11 -17 43 -11 50 10 8 24 -1 40 -21 40 -20 0 -18 18
4 23 13 4 11 5 -5 6 -18 1 -23 -4 -23 -23z"/>
<path d="M657 10023 c-4 -3 -7 -11 -7 -17 0 -6 5 -5 12 2 7 7 16 12 20 12 15
0 8 -27 -12 -45 -28 -26 -25 -35 13 -34 31 2 31 2 4 6 l-28 4 25 24 c16 15 23
30 20 39 -6 16 -35 22 -47 9z"/>
<path d="M731 9989 c-7 -23 -10 -44 -7 -47 3 -3 6 2 6 11 0 22 29 22 47 0 13
-16 13 -16 7 7 -22 82 -35 89 -53 29z m25 -6 c-10 -10 -19 5 -10 18 6 11 8 11
12 0 2 -7 1 -15 -2 -18z"/>
<path d="M425 10010 c-3 -5 -2 -10 4 -10 5 0 12 -15 14 -32 3 -29 4 -27 5 10
2 39 -9 55 -23 32z"/>
<path d="M488 9973 c7 -3 16 -2 19 1 4 3 -2 6 -13 5 -11 0 -14 -3 -6 -6z"/>
<path d="M5500 9925 c0 -41 2 -45 25 -45 17 0 29 8 36 24 15 32 -4 66 -36 66
-23 0 -25 -4 -25 -45z m53 13 c8 -12 7 -21 -2 -32 -23 -28 -41 -19 -41 20 0
28 4 35 16 32 9 -2 22 -10 27 -20z"/>
<path d="M5695 9959 c-4 -6 -4 -13 -1 -16 3 -4 6 -1 6 5 0 7 7 12 15 12 20 0
19 -29 0 -36 -9 -4 -20 -15 -26 -25 -9 -17 -6 -19 23 -18 25 1 27 3 10 6 l-24
5 22 23 c13 14 20 31 17 39 -7 18 -33 21 -42 5z"/>
<path d="M5762 9958 c-30 -30 1 -94 33 -68 25 20 13 80 -15 80 -3 0 -11 -5
-18 -12z m33 -33 c0 -32 -19 -45 -29 -19 -9 22 3 56 17 51 7 -2 12 -16 12 -32z"/>
<path d="M5595 9950 c-3 -5 -2 -10 4 -10 5 0 12 -15 14 -32 3 -29 4 -27 5 10
2 39 -9 55 -23 32z"/>
<path d="M5835 9950 c-3 -5 -2 -10 4 -10 5 0 12 -15 14 -32 3 -29 4 -27 5 10
2 39 -9 55 -23 32z"/>
<path d="M1562 9868 c3 -8 26 -14 56 -16 l52 -3 0 -250 c0 -242 -1 -249 -20
-249 -23 0 -27 -28 -5 -36 25 -10 85 5 85 21 0 8 -7 15 -15 15 -13 0 -15 34
-15 250 l0 250 55 0 c42 0 55 3 55 15 0 13 -21 15 -126 15 -96 0 -125 -3 -122
-12z"/>
<path d="M2250 9865 c0 -12 13 -15 55 -15 l55 0 0 -250 c0 -246 0 -250 -21
-250 -14 0 -19 -5 -17 -17 3 -14 13 -18 46 -17 50 1 64 11 39 28 -15 12 -17
37 -17 260 l0 246 55 0 c42 0 55 3 55 15 0 13 -21 15 -125 15 -104 0 -125 -2
-125 -15z"/>
<path d="M2940 9865 c0 -11 12 -15 50 -15 l50 0 0 -250 c0 -216 -2 -250 -15
-250 -8 0 -15 -9 -15 -20 0 -15 7 -20 28 -20 61 0 97 25 52 37 -19 5 -20 14
-20 254 l0 249 60 0 c47 0 60 3 60 15 0 13 -21 15 -125 15 -104 0 -125 -2
-125 -15z"/>
<path d="M3630 9865 c0 -11 12 -15 50 -15 l50 0 0 -250 c0 -216 -2 -250 -15
-250 -8 0 -15 -9 -15 -20 0 -15 7 -20 28 -20 61 0 97 25 52 37 -19 5 -20 14
-20 254 l0 249 60 0 c47 0 60 3 60 15 0 13 -21 15 -125 15 -104 0 -125 -2
-125 -15z"/>
<path d="M4340 9865 c0 -11 12 -15 45 -15 l45 0 0 -250 c0 -216 -2 -250 -15
-250 -8 0 -15 -9 -15 -20 0 -21 23 -26 68 -14 25 7 31 34 7 34 -13 0 -15 34
-15 250 l0 250 60 0 c47 0 60 3 60 15 0 13 -20 15 -120 15 -100 0 -120 -2
-120 -15z"/>
<path d="M5837 9863 c-4 -3 -7 -30 -7 -60 l0 -53 -250 0 c-216 0 -250 2 -250
15 0 8 -7 15 -15 15 -11 0 -15 -12 -15 -45 0 -33 4 -45 15 -45 8 0 15 7 15 15
0 13 35 15 255 15 l255 0 0 -55 c0 -42 3 -55 15 -55 13 0 15 21 15 130 0 102
-3 130 -13 130 -8 0 -17 -3 -20 -7z"/>
<path d="M340 9725 c0 -104 2 -125 15 -125 12 0 15 13 15 55 l0 55 250 0 c216
0 250 -2 250 -15 0 -8 7 -15 15 -15 16 0 31 60 21 85 -8 21 -27 19 -33 -5 -5
-19 -14 -20 -254 -20 l-249 0 0 55 c0 42 -3 55 -15 55 -13 0 -15 -21 -15 -125z"/>
<path d="M1390 9795 c0 -41 2 -45 25 -45 17 0 29 8 36 24 15 32 -4 66 -36 66
-23 0 -25 -4 -25 -45z m53 13 c8 -12 7 -21 -2 -32 -23 -28 -41 -19 -41 20 0
28 4 35 16 32 9 -2 22 -10 27 -20z"/>
<path d="M1740 9795 c0 -41 2 -45 25 -45 17 0 29 8 36 24 15 32 -4 66 -36 66
-23 0 -25 -4 -25 -45z m53 13 c8 -12 7 -21 -2 -32 -23 -28 -41 -19 -41 20 0
28 4 35 16 32 9 -2 22 -10 27 -20z"/>
<path d="M2080 9795 c0 -45 1 -46 28 -43 24 3 27 7 27 43 0 36 -3 40 -27 43
-27 3 -28 2 -28 -43z m45 0 c0 -20 -6 -31 -17 -33 -15 -3 -18 4 -18 33 0 29 3
36 18 33 11 -2 17 -13 17 -33z"/>
<path d="M2430 9795 c0 -45 1 -46 28 -43 24 3 27 7 27 43 0 36 -3 40 -27 43
-27 3 -28 2 -28 -43z m45 0 c0 -20 -6 -31 -17 -33 -15 -3 -18 4 -18 33 0 29 3
36 18 33 11 -2 17 -13 17 -33z"/>
<path d="M2770 9795 c0 -45 1 -46 28 -43 24 3 27 7 27 43 0 36 -3 40 -27 43
-27 3 -28 2 -28 -43z m45 0 c0 -20 -6 -31 -17 -33 -15 -3 -18 4 -18 33 0 29 3
36 18 33 11 -2 17 -13 17 -33z"/>
<path d="M3120 9795 c0 -45 1 -46 28 -43 24 3 27 7 27 43 0 36 -3 40 -27 43
-27 3 -28 2 -28 -43z m45 0 c0 -20 -6 -31 -17 -33 -15 -3 -18 4 -18 33 0 29 3
36 18 33 11 -2 17 -13 17 -33z"/>
<path d="M3450 9795 c0 -40 2 -45 23 -45 29 0 47 18 47 45 0 27 -18 45 -47 45
-21 0 -23 -5 -23 -45z m55 0 c0 -23 -5 -31 -22 -33 -20 -3 -23 1 -23 33 0 32
3 36 23 33 17 -2 22 -10 22 -33z"/>
<path d="M3800 9795 c0 -40 2 -45 23 -45 29 0 47 18 47 45 0 27 -18 45 -47 45
-21 0 -23 -5 -23 -45z m55 0 c0 -23 -5 -31 -22 -33 -20 -3 -23 1 -23 33 0 32
3 36 23 33 17 -2 22 -10 22 -33z"/>
<path d="M4140 9795 c0 -40 2 -45 23 -45 29 0 47 18 47 45 0 27 -18 45 -47 45
-21 0 -23 -5 -23 -45z m55 0 c0 -23 -5 -31 -22 -33 -20 -3 -23 1 -23 33 0 32
3 36 23 33 17 -2 22 -10 22 -33z"/>
<path d="M4240 9825 c-8 -9 -8 -15 -2 -15 6 0 13 -15 15 -32 3 -25 4 -22 5 15
2 51 1 54 -18 32z"/>
<path d="M4490 9795 c0 -40 2 -45 23 -45 29 0 47 18 47 45 0 27 -18 45 -47 45
-21 0 -23 -5 -23 -45z m55 0 c0 -23 -5 -31 -22 -33 -20 -3 -23 1 -23 33 0 32
3 36 23 33 17 -2 22 -10 22 -33z"/>
<path d="M4590 9825 c-8 -9 -8 -15 -2 -15 6 0 13 -15 15 -32 3 -25 4 -22 5 15
2 51 1 54 -18 32z"/>
<path d="M1488 9823 c-2 -5 -1 -24 3 -43 l6 -35 2 43 c1 39 -3 52 -11 35z"/>
<path d="M1838 9823 c-2 -5 -1 -24 3 -43 l6 -35 2 43 c1 39 -3 52 -11 35z"/>
<path d="M2178 9823 c-2 -5 -1 -24 3 -43 l6 -35 2 43 c1 39 -3 52 -11 35z"/>
<path d="M2528 9823 c-2 -5 -1 -24 3 -43 l6 -35 2 43 c1 39 -3 52 -11 35z"/>
<path d="M2860 9820 c-9 -6 -10 -10 -3 -10 6 0 14 -15 16 -32 3 -29 4 -27 5
10 1 23 1 42 0 42 -2 0 -10 -5 -18 -10z"/>
<path d="M3210 9820 c-9 -6 -10 -10 -3 -10 6 0 14 -15 16 -32 3 -29 4 -27 5
10 1 23 1 42 0 42 -2 0 -10 -5 -18 -10z"/>
<path d="M3550 9820 c-9 -6 -10 -10 -3 -10 6 0 14 -15 16 -32 3 -29 4 -27 5
10 1 23 1 42 0 42 -2 0 -10 -5 -18 -10z"/>
<path d="M3900 9820 c-9 -6 -10 -10 -3 -10 6 0 14 -15 16 -32 3 -29 4 -27 5
10 1 23 1 42 0 42 -2 0 -10 -5 -18 -10z"/>
<path d="M2918 9783 c7 -3 16 -2 19 1 4 3 -2 6 -13 5 -11 0 -14 -3 -6 -6z"/>
<path d="M3268 9783 c7 -3 16 -2 19 1 4 3 -2 6 -13 5 -11 0 -14 -3 -6 -6z"/>
<path d="M3608 9783 c7 -3 16 -2 19 1 4 3 -2 6 -13 5 -11 0 -14 -3 -6 -6z"/>
<path d="M3958 9783 c7 -3 16 -2 19 1 4 3 -2 6 -13 5 -11 0 -14 -3 -6 -6z"/>
<path d="M4298 9783 c7 -3 16 -2 19 1 4 3 -2 6 -13 5 -11 0 -14 -3 -6 -6z"/>
<path d="M4648 9783 c7 -3 16 -2 19 1 4 3 -2 6 -13 5 -11 0 -14 -3 -6 -6z"/>
<path d="M1390 9675 c-8 -9 -8 -15 -2 -15 6 0 12 6 15 13 3 9 7 9 17 0 10 -9
7 -16 -14 -34 -34 -30 -33 -39 7 -38 23 1 26 3 10 6 -28 5 -29 10 -1 32 13 11
19 24 15 34 -8 21 -31 22 -47 2z"/>
<path d="M1454 9676 c-3 -8 -4 -27 -2 -43 2 -20 8 -28 23 -28 29 0 34 45 6 52
-11 3 -18 10 -15 15 3 5 13 7 21 4 8 -3 11 -1 8 4 -9 15 -35 12 -41 -4z m36
-46 c0 -11 -7 -20 -15 -20 -15 0 -21 21 -8 33 12 13 23 7 23 -13z"/>
<path d="M1527 9684 c-4 -4 -7 -12 -7 -18 0 -6 4 -5 9 3 5 7 14 10 20 6 9 -5
9 -10 0 -21 -8 -10 -8 -14 0 -14 6 0 11 -7 11 -16 0 -12 -6 -15 -21 -11 -16 4
-19 3 -11 -5 21 -21 41 -1 39 39 -3 36 -22 54 -40 37z"/>
<path d="M1740 9675 c-8 -9 -8 -15 -2 -15 6 0 12 6 15 13 3 9 7 9 17 0 10 -9
7 -16 -14 -34 -34 -30 -33 -39 7 -38 23 1 26 3 10 6 -28 5 -29 10 -1 32 13 11
19 24 15 34 -8 21 -31 22 -47 2z"/>
<path d="M1804 9676 c-3 -8 -4 -27 -2 -43 2 -20 8 -28 23 -28 29 0 34 45 6 52
-11 3 -18 10 -15 15 3 5 13 7 21 4 8 -3 11 -1 8 4 -9 15 -35 12 -41 -4z m36
-46 c0 -11 -7 -20 -15 -20 -15 0 -21 21 -8 33 12 13 23 7 23 -13z"/>
<path d="M1883 9660 c-20 -32 -21 -35 -5 -39 9 -2 20 -8 23 -13 10 -16 15 14
9 52 l-5 35 -22 -35z m13 -27 c-10 -10 -19 5 -10 18 6 11 8 11 12 0 2 -7 1
-15 -2 -18z"/>
<path d="M2077 9683 c-4 -3 -7 -11 -7 -17 0 -6 5 -5 12 2 7 7 16 12 20 12 15
0 8 -27 -12 -45 -28 -26 -25 -35 13 -34 31 2 31 2 4 6 l-28 4 25 24 c16 15 23
30 20 39 -6 16 -35 22 -47 9z"/>
<path d="M2144 9676 c-3 -8 -4 -27 -2 -43 2 -20 8 -28 23 -28 29 0 34 45 6 52
-11 3 -18 10 -15 15 3 5 13 7 21 4 8 -3 11 -1 8 4 -9 15 -35 12 -41 -4z m36
-46 c0 -11 -7 -20 -15 -20 -15 0 -21 21 -8 33 12 13 23 7 23 -13z"/>
<path d="M2210 9666 c0 -17 5 -23 18 -22 9 0 17 -6 17 -14 0 -9 -8 -14 -19
-13 -12 1 -15 -2 -8 -9 16 -16 42 -2 42 23 0 12 -8 23 -20 26 -27 7 -25 21 3
26 19 4 18 4 -5 6 -23 1 -28 -3 -28 -23z"/>
<path d="M2427 9683 c-4 -3 -7 -11 -7 -17 0 -6 5 -5 12 2 7 7 16 12 20 12 15
0 8 -27 -12 -45 -28 -26 -25 -35 13 -34 31 2 31 2 4 6 l-28 4 25 24 c16 15 23
30 20 39 -6 16 -35 22 -47 9z"/>
<path d="M2494 9676 c-3 -8 -4 -27 -2 -43 2 -20 8 -28 23 -28 29 0 34 45 6 52
-11 3 -18 10 -15 15 3 5 13 7 21 4 8 -3 11 -1 8 4 -9 15 -35 12 -41 -4z m36
-46 c0 -11 -7 -20 -15 -20 -15 0 -21 21 -8 33 12 13 23 7 23 -13z"/>
<path d="M2564 9676 c-3 -8 -4 -27 -2 -43 2 -20 8 -28 23 -28 29 0 34 45 6 52
-12 3 -21 10 -21 15 0 5 10 6 21 3 15 -5 19 -4 15 4 -10 16 -36 14 -42 -3z
m31 -46 c0 -7 -6 -15 -12 -17 -8 -3 -13 4 -13 17 0 13 5 20 13 18 6 -3 12 -11
12 -18z"/>
<path d="M2767 9683 c-4 -3 -7 -11 -7 -17 0 -6 5 -5 12 2 7 7 16 12 20 12 15
0 8 -27 -12 -45 -28 -26 -25 -35 13 -34 31 2 31 2 4 6 l-28 4 25 24 c16 15 23
30 20 39 -6 16 -35 22 -47 9z"/>
<path d="M2834 9676 c-3 -8 -4 -27 -2 -43 2 -20 8 -28 23 -28 29 0 34 45 6 52
-12 3 -21 10 -21 15 0 5 10 6 21 3 15 -5 19 -4 15 4 -10 16 -36 14 -42 -3z
m31 -46 c0 -7 -6 -15 -12 -17 -8 -3 -13 4 -13 17 0 13 5 20 13 18 6 -3 12 -11
12 -18z"/>
<path d="M2913 9683 c16 -3 25 -9 21 -15 -4 -7 -2 -8 4 -4 22 14 12 26 -20 25
-31 -2 -31 -2 -5 -6z"/>
<path d="M3117 9683 c-4 -3 -7 -11 -7 -17 0 -6 5 -5 12 2 7 7 16 12 20 12 15
0 8 -27 -12 -45 -28 -26 -25 -35 13 -34 31 2 31 2 4 6 l-28 4 25 24 c16 15 23
30 20 39 -6 16 -35 22 -47 9z"/>
<path d="M3184 9676 c-3 -8 -4 -27 -2 -43 2 -20 8 -28 23 -28 29 0 34 45 6 52
-12 3 -21 10 -21 15 0 5 10 6 21 3 15 -5 19 -4 15 4 -10 16 -36 14 -42 -3z
m31 -46 c0 -7 -6 -15 -12 -17 -8 -3 -13 4 -13 17 0 13 5 20 13 18 6 -3 12 -11
12 -18z"/>
<path d="M3255 9678 c-2 -7 -6 -26 -7 -43 -3 -26 0 -30 22 -30 22 0 25 4 23
35 0 19 -1 38 -2 43 -2 12 -31 8 -36 -5z m25 -13 c0 -8 -4 -15 -10 -15 -5 0
-10 7 -10 15 0 8 5 15 10 15 6 0 10 -7 10 -15z m5 -34 c7 -12 -12 -24 -25 -16
-11 7 -4 25 10 25 5 0 11 -4 15 -9z"/>
<path d="M3455 9680 c-4 -6 -4 -14 -1 -17 3 -4 6 -1 6 5 0 7 7 12 15 12 22 0
18 -28 -5 -42 -29 -18 -25 -38 8 -37 l27 1 -25 7 -24 7 23 16 c13 9 21 24 19
34 -4 22 -33 31 -43 14z"/>
<path d="M3524 9676 c-3 -8 -4 -27 -2 -43 2 -20 8 -28 23 -28 29 0 34 45 6 52
-12 3 -21 10 -21 15 0 5 10 6 21 3 15 -5 19 -4 15 4 -10 16 -36 14 -42 -3z
m31 -46 c0 -7 -6 -15 -12 -17 -8 -3 -13 4 -13 17 0 13 5 20 13 18 6 -3 12 -11
12 -18z"/>
<path d="M3586 9675 c-8 -23 4 -45 26 -45 11 0 16 -4 13 -11 -4 -6 -13 -8 -21
-5 -8 3 -14 1 -14 -4 0 -14 24 -12 38 2 7 7 12 21 12 33 0 38 -42 61 -54 30z
m40 -6 c10 -17 -13 -36 -27 -22 -12 12 -4 33 11 33 5 0 12 -5 16 -11z"/>
<path d="M3805 9680 c-4 -6 -4 -14 -1 -17 3 -4 6 -1 6 5 0 7 7 12 15 12 22 0
18 -28 -5 -42 -29 -18 -25 -38 8 -37 l27 1 -25 7 -24 7 23 16 c13 9 21 24 19
34 -4 22 -33 31 -43 14z"/>
<path d="M3887 9683 c22 -4 22 -6 8 -33 -8 -16 -15 -35 -15 -42 0 -7 9 7 20
31 11 24 20 45 20 47 0 2 -12 3 -27 3 -24 -2 -25 -2 -6 -6z"/>
<path d="M3942 9678 c-30 -30 1 -94 33 -68 25 20 13 80 -15 80 -3 0 -11 -5
-18 -12z m33 -33 c0 -32 -19 -45 -29 -19 -9 22 3 56 17 51 7 -2 12 -16 12 -32z"/>
<path d="M4145 9680 c-4 -6 -4 -14 -1 -17 3 -4 6 -1 6 5 0 7 7 12 15 12 22 0
18 -28 -5 -42 -29 -18 -25 -38 8 -37 l27 1 -25 7 -24 7 23 16 c13 9 21 24 19
34 -4 22 -33 31 -43 14z"/>
<path d="M4223 9683 c16 -3 25 -9 21 -15 -4 -7 -2 -8 4 -4 22 14 12 26 -20 25
-31 -2 -31 -2 -5 -6z"/>
<path d="M4495 9680 c-4 -6 -4 -14 -1 -17 3 -4 6 -1 6 5 0 7 7 12 15 12 22 0
18 -28 -5 -42 -29 -18 -25 -38 8 -37 l27 1 -25 7 -24 7 23 16 c13 9 21 24 19
34 -4 22 -33 31 -43 14z"/>
<path d="M4573 9683 c16 -3 25 -9 21 -15 -4 -7 -2 -8 4 -4 22 14 12 26 -20 25
-31 -2 -31 -2 -5 -6z"/>
<path d="M4627 9684 c-4 -4 -7 -12 -7 -18 0 -6 5 -5 12 2 7 7 16 12 20 12 13
0 9 -28 -4 -33 -10 -4 -10 -6 0 -6 17 -1 15 -31 -2 -31 -8 0 -17 6 -19 13 -4
9 -6 9 -6 -1 -1 -18 27 -26 43 -13 9 8 11 22 7 44 -6 30 -29 46 -44 31z"/>
<path d="M4285 9670 c-3 -5 -2 -10 4 -10 5 0 12 -15 14 -32 3 -29 4 -27 5 10
2 39 -9 55 -23 32z"/>
<path d="M2914 9635 c-3 -8 -4 -20 -2 -27 3 -7 7 -1 10 15 6 29 1 36 -8 12z"/>
<path d="M4224 9635 c-3 -8 -4 -20 -2 -27 3 -7 7 -1 10 15 6 29 1 36 -8 12z"/>
<path d="M4574 9635 c-3 -8 -4 -20 -2 -27 3 -7 7 -1 10 15 6 29 1 36 -8 12z"/>
<path d="M5500 9545 c0 -41 2 -45 25 -45 17 0 29 8 36 24 15 32 -4 66 -36 66
-23 0 -25 -4 -25 -45z m53 13 c8 -12 7 -21 -2 -32 -23 -28 -41 -19 -41 20 0
28 4 35 16 32 9 -2 22 -10 27 -20z"/>
<path d="M5695 9579 c-4 -6 -4 -13 -1 -16 3 -4 6 -1 6 5 0 7 7 12 15 12 20 0
19 -29 0 -36 -9 -4 -20 -15 -26 -25 -9 -17 -6 -19 23 -18 25 1 27 3 10 6 l-24
5 22 23 c13 14 20 31 17 39 -7 18 -33 21 -42 5z"/>
<path d="M5762 9578 c-30 -30 1 -94 33 -68 25 20 13 80 -15 80 -3 0 -11 -5
-18 -12z m33 -33 c0 -32 -19 -45 -29 -19 -9 22 3 56 17 51 7 -2 12 -16 12 -32z"/>
<path d="M5827 9583 c-4 -3 -7 -11 -7 -17 0 -6 5 -5 12 2 7 7 16 12 20 12 15
0 8 -27 -12 -45 -28 -26 -25 -35 13 -34 31 2 31 2 4 6 l-28 4 25 24 c16 15 23
30 20 39 -6 16 -35 22 -47 9z"/>
<path d="M5595 9570 c-3 -5 -2 -10 4 -10 5 0 12 -15 14 -32 3 -29 4 -27 5 10
2 39 -9 55 -23 32z"/>
<path d="M330 9485 c0 -40 2 -45 23 -45 29 0 47 18 47 45 0 27 -18 45 -47 45
-21 0 -23 -5 -23 -45z m55 16 c8 -26 -4 -51 -26 -51 -15 0 -19 7 -19 35 0 28
4 35 19 35 11 0 22 -8 26 -19z"/>
<path d="M525 9520 c-4 -6 -4 -14 -1 -17 3 -4 6 -1 6 5 0 7 7 12 15 12 22 0
18 -28 -5 -42 -29 -18 -25 -38 8 -37 l27 1 -25 7 -24 7 23 16 c13 9 21 24 19
34 -4 22 -33 31 -43 14z"/>
<path d="M590 9506 c0 -17 5 -23 18 -22 9 0 17 -6 17 -14 0 -10 -8 -14 -23
-13 -13 2 -21 -1 -17 -7 11 -17 43 -11 50 10 8 24 -1 40 -21 40 -20 0 -18 18
4 23 13 4 11 5 -5 6 -18 1 -23 -4 -23 -23z"/>
<path d="M657 9523 c-4 -3 -7 -11 -7 -17 0 -6 5 -5 12 2 7 7 16 12 20 12 15 0
8 -27 -12 -45 -28 -26 -25 -35 13 -34 31 2 31 2 4 6 l-28 4 25 24 c16 15 23
30 20 39 -6 16 -35 22 -47 9z"/>
<path d="M425 9510 c-3 -5 -2 -10 4 -10 5 0 12 -15 14 -32 3 -29 4 -27 5 10 2
39 -9 55 -23 32z"/>
<path d="M488 9473 c7 -3 16 -2 19 1 4 3 -2 6 -13 5 -11 0 -14 -3 -6 -6z"/>
<path d="M330 9295 c0 -40 2 -45 23 -45 29 0 47 18 47 45 0 27 -18 45 -47 45
-21 0 -23 -5 -23 -45z m55 16 c8 -26 -4 -51 -26 -51 -15 0 -19 7 -19 35 0 28
4 35 19 35 11 0 22 -8 26 -19z"/>
<path d="M525 9330 c-4 -6 -4 -14 -1 -17 3 -4 6 -1 6 5 0 7 7 12 15 12 22 0
18 -28 -5 -42 -29 -18 -25 -38 8 -37 l27 1 -25 7 -24 7 23 16 c13 9 21 24 19
34 -4 22 -33 31 -43 14z"/>
<path d="M590 9316 c0 -17 5 -23 18 -22 9 0 17 -6 17 -14 0 -10 -8 -14 -23
-13 -13 2 -21 -1 -17 -7 11 -17 43 -11 50 10 8 24 -1 40 -21 40 -20 0 -18 18
4 23 13 4 11 5 -5 6 -18 1 -23 -4 -23 -23z"/>
<path d="M425 9320 c-3 -5 -2 -10 4 -10 5 0 12 -15 14 -32 3 -29 4 -27 5 10 2
39 -9 55 -23 32z"/>
<path d="M665 9320 c-3 -5 -2 -10 4 -10 5 0 12 -15 14 -32 3 -29 4 -27 5 10 2
39 -9 55 -23 32z"/>
<path d="M488 9283 c7 -3 16 -2 19 1 4 3 -2 6 -13 5 -11 0 -14 -3 -6 -6z"/>
<path d="M5500 9235 c0 -41 2 -45 25 -45 17 0 29 8 36 24 15 32 -4 66 -36 66
-23 0 -25 -4 -25 -45z m53 13 c8 -12 7 -21 -2 -32 -23 -28 -41 -19 -41 20 0
28 4 35 16 32 9 -2 22 -10 27 -20z"/>
<path d="M5695 9269 c-4 -6 -4 -13 -1 -16 3 -4 6 -1 6 5 0 7 7 12 15 12 20 0
19 -29 0 -36 -9 -4 -20 -15 -26 -25 -9 -17 -6 -19 23 -18 25 1 27 3 10 6 l-24
5 22 23 c13 14 20 31 17 39 -7 18 -33 21 -42 5z"/>
<path d="M5762 9268 c-30 -30 1 -94 33 -68 25 20 13 80 -15 80 -3 0 -11 -5
-18 -12z m33 -33 c0 -32 -19 -45 -29 -19 -9 22 3 56 17 51 7 -2 12 -16 12 -32z"/>
<path d="M5595 9260 c-3 -5 -2 -10 4 -10 5 0 12 -15 14 -32 3 -29 4 -27 5 10
2 39 -9 55 -23 32z"/>
<path d="M1628 9193 c-398 -3 -458 -5 -458 -18 0 -13 31 -15 215 -15 l215 0 0
-125 0 -125 -215 0 c-184 0 -215 -2 -215 -15 0 -13 36 -15 268 -15 l267 0 -3
140 -4 140 186 0 186 0 0 -125 0 -125 -145 0 c-122 0 -145 -2 -145 -15 0 -13
37 -15 275 -15 l275 0 0 35 c0 19 -4 35 -10 35 -5 0 -10 -11 -10 -25 l0 -25
-105 0 -105 0 0 140 0 140 89 0 c110 0 121 -4 121 -42 0 -17 4 -27 10 -23 6 3
10 21 10 39 0 29 -4 34 -31 40 -17 3 -73 5 -123 4 -50 -2 -297 -4 -548 -5z"/>
<path d="M2410 9154 c0 -27 4 -43 10 -39 6 3 10 19 10 36 l0 29 630 0 630 0 0
-29 c0 -17 5 -33 10 -36 6 -4 10 12 10 39 l0 46 -650 0 -650 0 0 -46z"/>
<path d="M3790 9154 c0 -27 4 -43 10 -39 6 3 10 19 10 36 l0 29 130 0 130 0 0
-140 0 -140 -130 0 -130 0 0 25 c0 14 -4 25 -10 25 -5 0 -10 -15 -10 -34 l0
-33 264 -8 c146 -4 269 -4 275 0 31 18 1 25 -114 25 l-125 0 0 135 0 134 122
3 c86 2 123 7 126 16 3 9 -56 12 -272 12 l-276 0 0 -46z"/>
<path d="M4430 9055 l0 -145 24 0 c31 0 44 20 22 32 -13 7 -16 27 -16 118 l0
110 120 0 120 0 0 -109 c0 -88 -3 -110 -15 -115 -8 -3 -15 -13 -15 -21 0 -13
9 -15 42 -13 38 3 69 28 34 28 -14 0 -16 17 -16 115 l0 115 120 0 120 0 0
-150 0 -150 90 0 90 0 0 60 c0 47 -3 60 -15 60 -11 0 -15 -12 -15 -45 l0 -45
-60 0 -60 0 0 135 0 135 59 0 c57 0 60 -1 63 -27 6 -48 28 -39 28 11 l0 46
-360 0 -360 0 0 -145z"/>
<path d="M1030 9041 c0 -120 2 -141 15 -141 13 0 15 20 13 137 -2 98 -6 138
-15 141 -10 3 -13 -29 -13 -137z"/>
<path d="M340 9035 c0 -104 2 -125 15 -125 12 0 15 13 15 55 l0 55 250 0 c216
0 250 -2 250 -15 0 -8 7 -15 15 -15 16 0 31 60 21 85 -8 21 -27 19 -33 -5 -5
-19 -14 -20 -254 -20 l-249 0 0 55 c0 42 -3 55 -15 55 -13 0 -15 -21 -15 -125z"/>
<path d="M330 8795 c0 -40 2 -45 23 -45 29 0 47 18 47 45 0 27 -18 45 -47 45
-21 0 -23 -5 -23 -45z m55 16 c8 -26 -4 -51 -26 -51 -15 0 -19 7 -19 35 0 28
4 35 19 35 11 0 22 -8 26 -19z"/>
<path d="M525 8830 c-4 -6 -4 -14 -1 -17 3 -4 6 -1 6 5 0 7 7 12 15 12 22 0
18 -28 -5 -42 -29 -18 -25 -38 8 -37 l27 1 -25 7 -24 7 23 16 c13 9 21 24 19
34 -4 22 -33 31 -43 14z"/>
<path d="M590 8816 c0 -17 5 -23 18 -22 9 0 17 -6 17 -14 0 -10 -8 -14 -23
-13 -13 2 -21 -1 -17 -7 11 -17 43 -11 50 10 8 24 -1 40 -21 40 -20 0 -18 18
4 23 13 4 11 5 -5 6 -18 1 -23 -4 -23 -23z"/>
<path d="M654 8816 c-8 -34 4 -68 23 -64 21 4 32 38 22 66 -11 29 -37 28 -45
-2z m36 -22 c0 -24 -4 -34 -12 -32 -24 8 -22 68 2 68 5 0 10 -16 10 -36z"/>
<path d="M425 8820 c-3 -5 -2 -10 4 -10 5 0 12 -15 14 -32 3 -29 4 -27 5 10 2
39 -9 55 -23 32z"/>
<path d="M488 8783 c7 -3 16 -2 19 1 4 3 -2 6 -13 5 -11 0 -14 -3 -6 -6z"/>
<path d="M1057 8713 c-4 -3 -7 -53 -7 -110 0 -85 3 -103 15 -103 12 0 15 17
15 90 l0 90 330 0 329 0 3 -92 3 -93 50 -5 50 -5 3 -102 3 -103 -58 0 -58 0 4
-125 3 -125 -331 0 -331 0 0 96 c0 72 -3 95 -12 92 -10 -4 -14 -56 -16 -206
-2 -175 0 -202 13 -202 12 0 15 16 15 90 l0 90 330 0 329 0 3 -92 3 -93 53 -3
52 -3 0 -105 0 -104 -57 0 -58 0 4 -125 3 -125 -331 0 -331 0 0 96 c0 72 -3
95 -12 92 -10 -4 -14 -56 -16 -206 -2 -173 0 -202 12 -202 12 0 16 19 18 93
l3 92 328 3 327 2 0 -94 c0 -104 1 -106 71 -106 l39 0 0 -105 0 -105 -57 0
-58 0 4 -125 3 -125 -331 0 -331 0 0 95 c0 78 -3 95 -15 95 -13 0 -15 -29 -15
-205 0 -176 2 -205 15 -205 12 0 15 17 15 95 l0 95 330 0 330 0 0 -94 c0 -104
1 -106 71 -106 l39 0 0 -105 0 -105 -57 0 -58 0 4 -125 3 -125 -331 0 -331 0
0 95 c0 78 -3 95 -15 95 -13 0 -15 -29 -15 -205 0 -176 2 -205 15 -205 12 0
15 17 15 95 l0 95 330 0 330 0 0 -94 c0 -105 1 -106 71 -106 l40 0 -3 -57 -3
-58 -112 -3 -113 -3 0 66 c0 50 -3 65 -15 65 -10 0 -15 -16 -17 -62 l-3 -63
-248 -3 c-244 -2 -249 -2 -254 18 -3 12 -11 19 -17 17 -7 -2 -12 -66 -14 -200
-2 -171 0 -197 13 -197 13 0 15 24 15 165 l0 165 335 0 336 0 -3 -157 -3 -158
-287 -3 c-247 -2 -288 -4 -288 -17 0 -13 47 -15 345 -15 300 0 345 2 345 15 0
11 -12 15 -45 15 l-45 0 0 160 0 160 38 0 c54 0 62 13 62 97 l0 73 -50 0 -50
0 0 220 0 220 50 0 50 0 0 125 0 125 -50 0 -50 0 0 220 0 220 50 0 50 0 0 125
0 125 -50 0 -50 0 0 220 0 220 50 0 50 0 0 125 0 125 -50 0 -50 0 0 220 0 220
50 0 51 0 -3 123 -3 122 -47 3 -48 3 0 105 0 104 -353 0 c-195 0 -357 -3 -360
-7z"/>
<path d="M4350 8705 c0 -11 12 -15 45 -15 l45 0 0 -164 0 -165 -47 -3 -48 -3
-3 -77 -3 -78 46 0 45 0 0 -220 0 -220 -45 0 -45 0 0 -125 0 -125 45 0 45 0 0
-220 0 -220 -45 0 -45 0 0 -125 0 -125 45 0 45 0 0 -220 0 -220 -45 0 -45 0 0
-125 0 -125 45 0 45 0 0 -220 0 -220 -45 0 -45 0 0 -125 0 -125 45 0 44 0 3
-102 3 -103 358 -3 357 -2 0 110 c0 91 -3 110 -15 110 -12 0 -15 -17 -15 -95
l0 -95 -327 2 -328 3 -5 95 -5 95 -47 3 -48 3 0 105 0 104 60 0 c47 0 60 3 60
15 0 8 -4 15 -10 15 -6 0 -10 43 -10 110 l0 110 330 0 330 0 0 -95 c0 -78 3
-95 15 -95 13 0 15 29 15 205 0 176 -2 205 -15 205 -12 0 -15 -17 -15 -95 l0
-95 -327 2 -328 3 -5 95 -5 95 -47 3 -48 3 0 105 0 104 60 0 c55 0 75 10 50
25 -6 4 -10 53 -10 116 l0 109 330 0 330 0 0 -95 c0 -78 3 -95 15 -95 13 0 15
29 15 205 0 176 -2 205 -15 205 -12 0 -15 -17 -15 -95 l0 -95 -330 0 -329 0
-3 98 -3 97 -47 3 -48 3 0 106 0 106 55 -6 c55 -6 78 4 56 26 -7 7 -11 53 -11
119 l0 108 330 0 330 0 0 -95 c0 -78 3 -95 15 -95 13 0 15 29 15 205 0 176 -2
205 -15 205 -12 0 -15 -17 -15 -95 l0 -95 -330 0 -329 0 -3 98 -3 97 -47 3
-48 3 0 106 0 106 54 -7 c56 -6 79 5 57 27 -7 7 -11 53 -11 119 l0 108 330 0
330 0 0 -95 c0 -78 3 -95 15 -95 13 0 15 29 15 205 0 176 -2 205 -15 205 -12
0 -15 -17 -15 -95 l0 -95 -330 0 -329 0 -3 98 -3 97 -47 3 -48 3 0 55 0 54
110 0 110 0 0 -55 c0 -48 2 -55 20 -55 18 0 20 7 20 55 l0 55 250 0 c216 0
250 -2 250 -15 0 -8 7 -15 15 -15 13 0 15 30 15 206 0 160 -3 205 -12 202 -10
-4 -14 -50 -16 -177 l-2 -171 -330 1 -330 0 0 165 0 164 285 0 c247 0 285 2
285 15 0 13 -44 15 -340 15 -296 0 -340 -2 -340 -15z"/>
<path d="M330 8605 c0 -40 2 -45 23 -45 29 0 47 18 47 45 0 27 -18 45 -47 45
-21 0 -23 -5 -23 -45z m55 16 c8 -26 -4 -51 -26 -51 -15 0 -19 7 -19 35 0 28
4 35 19 35 11 0 22 -8 26 -19z"/>
<path d="M525 8640 c-4 -6 -4 -14 -1 -17 3 -4 6 -1 6 5 0 7 7 12 15 12 22 0
18 -28 -5 -42 -29 -18 -25 -38 8 -37 l27 1 -25 7 -24 7 23 16 c13 9 21 24 19
34 -4 22 -33 31 -43 14z"/>
<path d="M659 8648 c-1 -2 -3 -20 -4 -41 -3 -27 0 -40 11 -44 18 -7 46 16 37
31 -4 6 -7 20 -8 31 0 11 -8 21 -17 23 -10 2 -18 2 -19 0z m31 -23 c0 -8 -4
-15 -9 -15 -13 0 -22 16 -14 24 11 11 23 6 23 -9z m1 -40 c-1 -15 -24 -12 -29
3 -3 9 2 13 12 10 10 -1 17 -7 17 -13z"/>
<path d="M731 8609 c-7 -23 -10 -44 -7 -47 3 -3 6 2 6 11 0 22 29 22 47 0 13
-16 13 -16 7 7 -22 82 -35 89 -53 29z m25 -6 c-10 -10 -19 5 -10 18 6 11 8 11
12 0 2 -7 1 -15 -2 -18z"/>
<path d="M425 8630 c-3 -5 -2 -10 4 -10 5 0 12 -15 14 -32 3 -29 4 -27 5 10 2
39 -9 55 -23 32z"/>
<path d="M596 8615 c-21 -31 -20 -35 4 -35 11 0 20 -6 20 -12 0 -10 2 -10 8 0
10 15 3 72 -8 72 -4 0 -15 -11 -24 -25z m24 -10 c0 -8 -7 -15 -16 -15 -14 0
-14 3 -4 15 7 8 14 15 16 15 2 0 4 -7 4 -15z"/>
<path d="M488 8593 c7 -3 16 -2 19 1 4 3 -2 6 -13 5 -11 0 -14 -3 -6 -6z"/>
<path d="M1250 8555 c0 -40 2 -45 23 -45 29 0 47 18 47 45 0 27 -18 45 -47 45
-21 0 -23 -5 -23 -45z m55 16 c8 -26 -4 -51 -26 -51 -15 0 -19 7 -19 35 0 28
4 35 19 35 11 0 22 -8 26 -19z"/>
<path d="M1445 8590 c-4 -6 -4 -14 -1 -17 3 -4 6 -1 6 5 0 7 7 12 15 12 22 0
18 -28 -5 -42 -29 -18 -25 -38 8 -37 l27 1 -25 7 -24 7 23 16 c13 9 21 24 19
34 -4 22 -33 31 -43 14z"/>
<path d="M1514 8586 c-3 -8 -4 -27 -2 -43 2 -20 8 -28 23 -28 29 0 34 45 6 52
-12 3 -21 10 -21 15 0 5 10 6 21 3 15 -5 19 -4 15 4 -10 16 -36 14 -42 -3z
m31 -46 c0 -7 -6 -15 -12 -17 -8 -3 -13 4 -13 17 0 13 5 20 13 18 6 -3 12 -11
12 -18z"/>
<path d="M1577 8593 c-4 -3 -7 -11 -7 -17 0 -6 5 -5 12 2 7 7 16 12 20 12 15
0 8 -27 -12 -45 -28 -26 -25 -35 13 -34 31 2 31 2 4 6 l-28 4 25 24 c16 15 23
30 20 39 -6 16 -35 22 -47 9z"/>
<path d="M1345 8580 c-3 -5 -2 -10 4 -10 5 0 12 -15 14 -32 3 -29 4 -27 5 10
2 39 -9 55 -23 32z"/>
<path d="M5500 8545 c0 -41 2 -45 25 -45 17 0 29 8 36 24 15 32 -4 66 -36 66
-23 0 -25 -4 -25 -45z m53 13 c8 -12 7 -21 -2 -32 -23 -28 -41 -19 -41 20 0
28 4 35 16 32 9 -2 22 -10 27 -20z"/>
<path d="M5695 8579 c-4 -6 -4 -13 -1 -16 3 -4 6 -1 6 5 0 7 7 12 15 12 20 0
19 -29 0 -36 -9 -4 -20 -15 -26 -25 -9 -17 -6 -19 23 -18 25 1 27 3 10 6 l-24
5 22 23 c13 14 20 31 17 39 -7 18 -33 21 -42 5z"/>
<path d="M5762 8578 c-30 -30 1 -94 33 -68 25 20 13 80 -15 80 -3 0 -11 -5
-18 -12z m33 -33 c0 -32 -19 -45 -29 -19 -9 22 3 56 17 51 7 -2 12 -16 12 -32z"/>
<path d="M5595 8570 c-3 -5 -2 -10 4 -10 5 0 12 -15 14 -32 3 -29 4 -27 5 10
2 39 -9 55 -23 32z"/>
<path d="M5838 8560 c-22 -30 -23 -40 -3 -40 8 0 15 -5 15 -10 0 -6 6 -5 14 2
8 7 10 15 6 18 -4 3 -10 16 -11 30 l-4 25 -17 -25z m12 -15 c0 -8 -4 -15 -10
-15 -5 0 -7 7 -4 15 4 8 8 15 10 15 2 0 4 -7 4 -15z"/>
<path d="M1408 8543 c7 -3 16 -2 19 1 4 3 -2 6 -13 5 -11 0 -14 -3 -6 -6z"/>
<path d="M340 8351 c0 -110 2 -131 15 -131 12 0 15 13 15 55 l0 55 250 0 c216
0 250 -2 250 -15 0 -8 7 -15 15 -15 16 0 31 60 21 85 -8 22 -36 18 -36 -5 0
-19 -7 -20 -250 -20 l-249 0 -3 57 c-2 34 -8 58 -15 61 -10 3 -13 -27 -13
-127z"/>
<path d="M1590 8425 l0 -55 -255 0 c-220 0 -255 2 -255 15 0 8 -7 15 -15 15
-11 0 -15 -12 -15 -45 0 -32 4 -45 14 -45 8 0 16 7 20 15 5 13 42 15 256 15
l250 0 0 -55 c0 -42 3 -55 15 -55 13 0 15 21 15 125 0 104 -2 125 -15 125 -12
0 -15 -13 -15 -55z"/>
<path d="M5830 8425 l0 -55 -250 0 c-216 0 -250 2 -250 15 0 8 -7 15 -15 15
-11 0 -15 -12 -15 -45 0 -33 4 -45 15 -45 8 0 15 7 15 15 0 13 35 15 255 15
l255 0 0 -55 c0 -42 3 -55 15 -55 13 0 15 21 15 125 0 118 -1 125 -20 125 -18
0 -20 -7 -20 -55z"/>
<path d="M1250 8175 c0 -40 2 -45 23 -45 29 0 47 18 47 45 0 27 -18 45 -47 45
-21 0 -23 -5 -23 -45z m55 16 c8 -26 -4 -51 -26 -51 -15 0 -19 7 -19 35 0 28
4 35 19 35 11 0 22 -8 26 -19z"/>
<path d="M1445 8210 c-4 -6 -4 -14 -1 -17 3 -4 6 -1 6 5 0 7 7 12 15 12 22 0
18 -28 -5 -42 -29 -18 -25 -38 8 -37 l27 1 -25 7 -24 7 23 16 c13 9 21 24 19
34 -4 22 -33 31 -43 14z"/>
<path d="M1514 8206 c-3 -8 -4 -27 -2 -43 2 -20 8 -28 23 -28 29 0 34 45 6 52
-12 3 -21 10 -21 15 0 5 10 6 21 3 15 -5 19 -4 15 4 -10 16 -36 14 -42 -3z
m31 -46 c0 -7 -6 -15 -12 -17 -8 -3 -13 4 -13 17 0 13 5 20 13 18 6 -3 12 -11
12 -18z"/>
<path d="M1345 8200 c-3 -5 -2 -10 4 -10 5 0 12 -15 14 -32 3 -29 4 -27 5 10
2 39 -9 55 -23 32z"/>
<path d="M1585 8200 c-3 -5 -2 -10 4 -10 5 0 12 -15 14 -32 3 -29 4 -27 5 10
2 39 -9 55 -23 32z"/>
<path d="M5500 8165 c0 -41 2 -45 25 -45 17 0 29 8 36 24 15 32 -4 66 -36 66
-23 0 -25 -4 -25 -45z m53 13 c8 -12 7 -21 -2 -32 -23 -28 -41 -19 -41 20 0
28 4 35 16 32 9 -2 22 -10 27 -20z"/>
<path d="M5695 8199 c-4 -6 -4 -13 -1 -16 3 -4 6 -1 6 5 0 7 7 12 15 12 20 0
19 -29 0 -36 -9 -4 -20 -15 -26 -25 -9 -17 -6 -19 23 -18 25 1 27 3 10 6 l-24
5 22 23 c13 14 20 31 17 39 -7 18 -33 21 -42 5z"/>
<path d="M5762 8198 c-30 -30 1 -94 33 -68 25 20 13 80 -15 80 -3 0 -11 -5
-18 -12z m33 -33 c0 -32 -19 -45 -29 -19 -9 22 3 56 17 51 7 -2 12 -16 12 -32z"/>
<path d="M5826 8194 c-10 -26 -7 -32 14 -27 15 4 20 0 20 -17 0 -18 -4 -20
-22 -15 -19 6 -21 5 -10 -6 9 -10 17 -11 30 -3 24 16 21 36 -8 51 l-24 12 24
10 c23 9 23 10 4 10 -12 1 -25 -6 -28 -15z"/>
<path d="M5595 8190 c-3 -5 -2 -10 4 -10 5 0 12 -15 14 -32 3 -29 4 -27 5 10
2 39 -9 55 -23 32z"/>
<path d="M1408 8163 c7 -3 16 -2 19 1 4 3 -2 6 -13 5 -11 0 -14 -3 -6 -6z"/>
<path d="M330 8105 c0 -40 2 -45 23 -45 29 0 47 18 47 45 0 27 -18 45 -47 45
-21 0 -23 -5 -23 -45z m55 16 c8 -26 -4 -51 -26 -51 -15 0 -19 7 -19 35 0 28
4 35 19 35 11 0 22 -8 26 -19z"/>
<path d="M525 8140 c-4 -6 -4 -14 -1 -17 3 -4 6 -1 6 5 0 7 7 12 15 12 22 0
18 -28 -5 -42 -29 -18 -25 -38 8 -37 l27 1 -25 7 -24 7 23 16 c13 9 21 24 19
34 -4 22 -33 31 -43 14z"/>
<path d="M659 8148 c-1 -2 -3 -20 -4 -41 -3 -27 0 -40 11 -44 18 -7 46 16 37
31 -4 6 -7 20 -8 31 0 11 -8 21 -17 23 -10 2 -18 2 -19 0z m31 -23 c0 -8 -4
-15 -9 -15 -13 0 -22 16 -14 24 11 11 23 6 23 -9z m1 -40 c-1 -15 -24 -12 -29
3 -3 9 2 13 12 10 10 -1 17 -7 17 -13z"/>
<path d="M4580 8105 c0 -45 1 -46 28 -43 24 3 27 7 27 43 0 36 -3 40 -27 43
-27 3 -28 2 -28 -43z m45 0 c0 -20 -6 -31 -17 -33 -15 -3 -18 4 -18 33 0 29 3
36 18 33 11 -2 17 -13 17 -33z"/>
<path d="M4775 8139 c-4 -6 -4 -13 -1 -16 3 -4 6 -1 6 5 0 7 7 12 15 12 20 0
19 -29 0 -36 -9 -4 -20 -15 -26 -25 -9 -17 -6 -19 23 -18 25 1 27 3 10 6 l-24
5 22 23 c13 14 20 31 17 39 -7 18 -33 21 -42 5z"/>
<path d="M4906 8138 c-3 -7 -4 -26 -3 -43 2 -23 7 -30 22 -30 17 0 20 7 20 40
0 30 -4 41 -18 43 -9 2 -19 -2 -21 -10z m34 -6 c0 -13 -12 -22 -22 -16 -10 6
-1 24 13 24 5 0 9 -4 9 -8z m0 -47 c0 -8 -7 -15 -15 -15 -8 0 -15 7 -15 15 0
8 7 15 15 15 8 0 15 -7 15 -15z"/>
<path d="M425 8130 c-3 -5 -2 -10 4 -10 5 0 12 -15 14 -32 3 -29 4 -27 5 10 2
39 -9 55 -23 32z"/>
<path d="M596 8115 c-21 -31 -20 -35 4 -35 11 0 20 -6 20 -12 0 -10 2 -10 8 0
10 15 3 72 -8 72 -4 0 -15 -11 -24 -25z m24 -10 c0 -8 -7 -15 -16 -15 -14 0
-14 3 -4 15 7 8 14 15 16 15 2 0 4 -7 4 -15z"/>
<path d="M4678 8133 c-2 -5 -1 -24 3 -43 l6 -35 2 43 c1 39 -3 52 -11 35z"/>
<path d="M4845 8130 c-3 -5 -2 -10 4 -10 5 0 12 -15 14 -32 3 -29 4 -27 5 10
2 39 -9 55 -23 32z"/>
<path d="M488 8093 c7 -3 16 -2 19 1 4 3 -2 6 -13 5 -11 0 -14 -3 -6 -6z"/>
<path d="M330 7915 c0 -40 2 -45 23 -45 29 0 47 18 47 45 0 27 -18 45 -47 45
-21 0 -23 -5 -23 -45z m55 16 c8 -26 -4 -51 -26 -51 -15 0 -19 7 -19 35 0 28
4 35 19 35 11 0 22 -8 26 -19z"/>
<path d="M525 7950 c-4 -6 -4 -14 -1 -17 3 -4 6 -1 6 5 0 7 7 12 15 12 22 0
18 -28 -5 -42 -29 -18 -25 -38 8 -37 l27 1 -25 7 -24 7 23 16 c13 9 21 24 19
34 -4 22 -33 31 -43 14z"/>
<path d="M668 7953 c26 -5 26 -1 6 -49 -21 -50 -7 -37 17 16 l18 40 -32 -1
c-24 -1 -26 -3 -9 -6z"/>
<path d="M4580 7915 c0 -45 1 -46 28 -43 24 3 27 7 27 43 0 36 -3 40 -27 43
-27 3 -28 2 -28 -43z m45 0 c0 -20 -6 -31 -17 -33 -15 -3 -18 4 -18 33 0 29 3
36 18 33 11 -2 17 -13 17 -33z"/>
<path d="M4775 7949 c-4 -6 -4 -13 -1 -16 3 -4 6 -1 6 5 0 7 7 12 15 12 20 0
19 -29 0 -36 -9 -4 -20 -15 -26 -25 -9 -17 -6 -19 23 -18 25 1 27 3 10 6 l-24
5 22 23 c13 14 20 31 17 39 -7 18 -33 21 -42 5z"/>
<path d="M4907 7954 c-14 -15 -6 -46 13 -51 11 -3 20 -10 20 -15 0 -6 -10 -8
-21 -5 -16 4 -19 3 -11 -5 22 -22 43 0 40 39 -3 36 -23 54 -41 37z m33 -24 c0
-11 -7 -20 -15 -20 -8 0 -15 9 -15 20 0 11 7 20 15 20 8 0 15 -9 15 -20z"/>
<path d="M425 7940 c-3 -5 -2 -10 4 -10 5 0 12 -15 14 -32 3 -29 4 -27 5 10 2
39 -9 55 -23 32z"/>
<path d="M596 7925 c-21 -31 -20 -35 4 -35 11 0 20 -6 20 -12 0 -10 2 -10 8 0
10 15 3 72 -8 72 -4 0 -15 -11 -24 -25z m24 -10 c0 -8 -7 -15 -16 -15 -14 0
-14 3 -4 15 7 8 14 15 16 15 2 0 4 -7 4 -15z"/>
<path d="M4678 7943 c-2 -5 -1 -24 3 -43 l6 -35 2 43 c1 39 -3 52 -11 35z"/>
<path d="M4845 7940 c-3 -5 -2 -10 4 -10 5 0 12 -15 14 -32 3 -29 4 -27 5 10
2 39 -9 55 -23 32z"/>
<path d="M488 7903 c7 -3 16 -2 19 1 4 3 -2 6 -13 5 -11 0 -14 -3 -6 -6z"/>
<path d="M1250 7865 c0 -40 2 -45 23 -45 29 0 47 18 47 45 0 27 -18 45 -47 45
-21 0 -23 -5 -23 -45z m55 16 c8 -26 -4 -51 -26 -51 -15 0 -19 7 -19 35 0 28
4 35 19 35 11 0 22 -8 26 -19z"/>
<path d="M1445 7900 c-4 -6 -4 -14 -1 -17 3 -4 6 -1 6 5 0 7 7 12 15 12 22 0
18 -28 -5 -42 -29 -18 -25 -38 8 -37 l27 1 -25 7 -24 7 23 16 c13 9 21 24 19
34 -4 22 -33 31 -43 14z"/>
<path d="M1514 7896 c-3 -8 -4 -27 -2 -43 2 -20 8 -28 23 -28 29 0 34 45 6 52
-12 3 -21 10 -21 15 0 5 10 6 21 3 15 -5 19 -4 15 4 -10 16 -36 14 -42 -3z
m31 -46 c0 -7 -6 -15 -12 -17 -8 -3 -13 4 -13 17 0 13 5 20 13 18 6 -3 12 -11
12 -18z"/>
<path d="M1574 7886 c-8 -34 4 -68 23 -64 21 4 32 38 22 66 -11 29 -37 28 -45
-2z m36 -22 c0 -24 -4 -34 -12 -32 -24 8 -22 68 2 68 5 0 10 -16 10 -36z"/>
<path d="M1345 7890 c-3 -5 -2 -10 4 -10 5 0 12 -15 14 -32 3 -29 4 -27 5 10
2 39 -9 55 -23 32z"/>
<path d="M5500 7855 c0 -41 2 -45 25 -45 17 0 29 8 36 24 15 32 -4 66 -36 66
-23 0 -25 -4 -25 -45z m53 13 c8 -12 7 -21 -2 -32 -23 -28 -41 -19 -41 20 0
28 4 35 16 32 9 -2 22 -10 27 -20z"/>
<path d="M5695 7889 c-4 -6 -4 -13 -1 -16 3 -4 6 -1 6 5 0 7 7 12 15 12 20 0
19 -29 0 -36 -9 -4 -20 -15 -26 -25 -9 -17 -6 -19 23 -18 25 1 27 3 10 6 l-24
5 22 23 c13 14 20 31 17 39 -7 18 -33 21 -42 5z"/>
<path d="M5762 7888 c-30 -30 1 -94 33 -68 25 20 13 80 -15 80 -3 0 -11 -5
-18 -12z m33 -33 c0 -32 -19 -45 -29 -19 -9 22 3 56 17 51 7 -2 12 -16 12 -32z"/>
<path d="M5832 7888 c-21 -21 -11 -78 13 -78 7 0 18 7 25 15 15 19 -5 49 -27
40 -9 -3 -13 0 -10 7 2 7 11 12 20 12 9 -1 14 2 11 7 -7 12 -18 11 -32 -3z
m28 -48 c0 -21 -15 -27 -25 -10 -7 12 2 30 16 30 5 0 9 -9 9 -20z"/>
<path d="M5595 7880 c-3 -5 -2 -10 4 -10 5 0 12 -15 14 -32 3 -29 4 -27 5 10
2 39 -9 55 -23 32z"/>
<path d="M1408 7853 c7 -3 16 -2 19 1 4 3 -2 6 -13 5 -11 0 -14 -3 -6 -6z"/>
<path d="M1590 7740 l0 -60 -255 0 c-220 0 -255 2 -255 15 0 8 -7 15 -15 15
-11 0 -15 -12 -15 -45 0 -33 4 -45 15 -45 8 0 15 7 15 15 0 13 35 15 255 15
l255 0 0 -55 c0 -42 3 -55 15 -55 13 0 15 21 15 130 0 109 -2 130 -15 130 -12
0 -15 -13 -15 -60z"/>
<path d="M5837 7794 c-4 -4 -7 -31 -7 -61 l0 -53 -250 0 c-216 0 -250 2 -250
15 0 8 -7 15 -15 15 -11 0 -15 -12 -15 -45 0 -33 4 -45 15 -45 8 0 15 7 15 15
0 13 35 15 255 15 l255 0 0 -55 c0 -43 3 -55 15 -55 13 0 15 18 13 127 -3 117
-10 148 -31 127z"/>
<path d="M340 7660 c0 -109 2 -130 15 -130 12 0 15 13 15 55 l0 55 246 0 c223
0 248 -2 260 -17 17 -25 27 -11 28 39 1 33 -3 43 -16 46 -13 2 -18 -3 -18 -17
0 -21 -4 -21 -250 -21 l-250 0 0 60 c0 47 -3 60 -15 60 -13 0 -15 -21 -15
-130z"/>
<path d="M4587 7708 c-12 -149 -10 -178 13 -178 18 0 20 7 20 55 l0 55 250 0
c216 0 250 -2 250 -15 0 -8 7 -15 15 -15 11 0 15 12 15 50 0 38 -4 50 -15 50
-8 0 -15 -9 -15 -20 0 -19 -7 -20 -250 -20 l-249 0 -3 57 c-5 88 -24 77 -31
-19z"/>
<path d="M1250 7485 c0 -40 2 -45 23 -45 29 0 47 18 47 45 0 27 -18 45 -47 45
-21 0 -23 -5 -23 -45z m55 16 c8 -26 -4 -51 -26 -51 -15 0 -19 7 -19 35 0 28
4 35 19 35 11 0 22 -8 26 -19z"/>
<path d="M1445 7520 c-4 -6 -4 -14 -1 -17 3 -4 6 -1 6 5 0 7 7 12 15 12 22 0
18 -28 -5 -42 -29 -18 -25 -38 8 -37 l27 1 -25 7 -24 7 23 16 c13 9 21 24 19
34 -4 22 -33 31 -43 14z"/>
<path d="M1510 7506 c0 -17 5 -23 18 -22 9 0 17 -6 17 -14 0 -9 -8 -14 -19
-13 -12 1 -15 -2 -8 -9 16 -16 42 -2 42 23 0 12 -8 23 -20 26 -27 7 -25 21 3
26 19 4 18 4 -5 6 -23 1 -28 -3 -28 -23z"/>
<path d="M1577 7523 c-14 -14 -6 -45 13 -50 11 -3 20 -10 20 -15 0 -5 -10 -6
-21 -3 -15 5 -19 4 -15 -4 23 -36 66 21 46 60 -11 19 -31 25 -43 12z m33 -23
c0 -21 -15 -27 -25 -10 -7 12 2 30 16 30 5 0 9 -9 9 -20z"/>
<path d="M1345 7510 c-3 -5 -2 -10 4 -10 5 0 12 -15 14 -32 3 -29 4 -27 5 10
2 39 -9 55 -23 32z"/>
<path d="M5500 7475 c0 -41 2 -45 25 -45 17 0 29 8 36 24 15 32 -4 66 -36 66
-23 0 -25 -4 -25 -45z m53 13 c8 -12 7 -21 -2 -32 -23 -28 -41 -19 -41 20 0
28 4 35 16 32 9 -2 22 -10 27 -20z"/>
<path d="M5695 7509 c-4 -6 -4 -13 -1 -16 3 -4 6 -1 6 5 0 7 7 12 15 12 20 0
19 -29 0 -36 -9 -4 -20 -15 -26 -25 -9 -17 -6 -19 23 -18 25 1 27 3 10 6 l-24
5 22 23 c13 14 20 31 17 39 -7 18 -33 21 -42 5z"/>
<path d="M5762 7508 c-30 -30 1 -94 33 -68 25 20 13 80 -15 80 -3 0 -11 -5
-18 -12z m33 -33 c0 -32 -19 -45 -29 -19 -9 22 3 56 17 51 7 -2 12 -16 12 -32z"/>
<path d="M5838 7513 c26 -5 26 -1 6 -49 -21 -50 -7 -37 17 16 l18 40 -32 -1
c-24 -1 -26 -3 -9 -6z"/>
<path d="M5595 7500 c-3 -5 -2 -10 4 -10 5 0 12 -15 14 -32 3 -29 4 -27 5 10
2 39 -9 55 -23 32z"/>
<path d="M1408 7473 c7 -3 16 -2 19 1 4 3 -2 6 -13 5 -11 0 -14 -3 -6 -6z"/>
<path d="M330 7415 c0 -40 2 -45 23 -45 29 0 47 18 47 45 0 27 -18 45 -47 45
-21 0 -23 -5 -23 -45z m55 16 c8 -26 -4 -51 -26 -51 -15 0 -19 7 -19 35 0 28
4 35 19 35 11 0 22 -8 26 -19z"/>
<path d="M525 7450 c-4 -6 -4 -14 -1 -17 3 -4 6 -1 6 5 0 7 7 12 15 12 22 0
18 -28 -5 -42 -29 -18 -25 -38 8 -37 l27 1 -25 7 -24 7 23 16 c13 9 21 24 19
34 -4 22 -33 31 -43 14z"/>
<path d="M662 7448 c-21 -21 -11 -78 13 -78 7 0 18 7 25 15 15 19 -5 49 -27
40 -9 -3 -13 0 -10 7 2 7 11 12 20 12 9 -1 14 2 11 7 -7 12 -18 11 -32 -3z
m28 -48 c0 -21 -15 -27 -25 -10 -7 12 2 30 16 30 5 0 9 -9 9 -20z"/>
<path d="M4580 7415 c0 -45 1 -46 28 -43 24 3 27 7 27 43 0 36 -3 40 -27 43
-27 3 -28 2 -28 -43z m45 0 c0 -20 -6 -31 -17 -33 -15 -3 -18 4 -18 33 0 29 3
36 18 33 11 -2 17 -13 17 -33z"/>
<path d="M4775 7449 c-4 -6 -4 -13 -1 -16 3 -4 6 -1 6 5 0 7 7 12 15 12 20 0
19 -29 0 -36 -9 -4 -20 -15 -26 -25 -9 -17 -6 -19 23 -18 25 1 27 3 10 6 l-24
5 22 23 c13 14 20 31 17 39 -7 18 -33 21 -42 5z"/>
<path d="M4837 7453 c-4 -3 -7 -11 -7 -17 0 -6 5 -5 12 2 7 7 16 12 20 12 15
0 8 -27 -12 -45 -28 -26 -25 -35 13 -34 31 2 31 2 4 6 l-28 4 25 24 c16 15 23
30 20 39 -6 16 -35 22 -47 9z"/>
<path d="M4904 7447 c-3 -9 -4 -28 -2 -44 2 -20 8 -28 23 -28 17 0 20 7 20 40
0 30 -4 41 -18 43 -9 2 -20 -3 -23 -11z m36 -32 c0 -24 -5 -35 -15 -35 -15 0
-22 50 -8 63 15 15 23 5 23 -28z"/>
<path d="M425 7440 c-3 -5 -2 -10 4 -10 5 0 12 -15 14 -32 3 -29 4 -27 5 10 2
39 -9 55 -23 32z"/>
<path d="M596 7425 c-21 -31 -20 -35 4 -35 11 0 20 -6 20 -12 0 -10 2 -10 8 0
10 15 3 72 -8 72 -4 0 -15 -11 -24 -25z m24 -10 c0 -8 -7 -15 -16 -15 -14 0
-14 3 -4 15 7 8 14 15 16 15 2 0 4 -7 4 -15z"/>
<path d="M4678 7443 c-2 -5 -1 -24 3 -43 l6 -35 2 43 c1 39 -3 52 -11 35z"/>
<path d="M488 7403 c7 -3 16 -2 19 1 4 3 -2 6 -13 5 -11 0 -14 -3 -6 -6z"/>
<path d="M330 7235 c0 -40 2 -45 23 -45 29 0 47 18 47 45 0 27 -18 45 -47 45
-21 0 -23 -5 -23 -45z m55 16 c8 -26 -4 -51 -26 -51 -15 0 -19 7 -19 35 0 28
4 35 19 35 11 0 22 -8 26 -19z"/>
<path d="M525 7270 c-4 -6 -4 -14 -1 -17 3 -4 6 -1 6 5 0 7 7 12 15 12 22 0
18 -28 -5 -42 -29 -18 -25 -38 8 -37 l27 1 -25 7 -24 7 23 16 c13 9 21 24 19
34 -4 22 -33 31 -43 14z"/>
<path d="M656 7264 c-10 -26 -7 -32 14 -27 15 4 20 0 20 -17 0 -18 -4 -20 -22
-15 -19 6 -21 5 -10 -6 9 -10 17 -11 30 -3 24 16 21 36 -8 51 l-24 12 24 10
c23 9 23 10 4 10 -12 1 -25 -6 -28 -15z"/>
<path d="M4580 7235 c0 -45 1 -46 28 -43 24 3 27 7 27 43 0 36 -3 40 -27 43
-27 3 -28 2 -28 -43z m45 0 c0 -20 -6 -31 -17 -33 -15 -3 -18 4 -18 33 0 29 3
36 18 33 11 -2 17 -13 17 -33z"/>
<path d="M4775 7269 c-4 -6 -4 -13 -1 -16 3 -4 6 -1 6 5 0 7 7 12 15 12 20 0
19 -29 0 -36 -9 -4 -20 -15 -26 -25 -9 -17 -6 -19 23 -18 25 1 27 3 10 6 l-24
5 22 23 c13 14 20 31 17 39 -7 18 -33 21 -42 5z"/>
<path d="M4837 7273 c-4 -3 -7 -11 -7 -17 0 -6 5 -5 12 2 7 7 16 12 20 12 15
0 8 -27 -12 -45 -28 -26 -25 -35 13 -34 31 2 31 2 4 6 l-28 4 25 24 c16 15 23
30 20 39 -6 16 -35 22 -47 9z"/>
<path d="M425 7260 c-3 -5 -2 -10 4 -10 5 0 12 -15 14 -32 3 -29 4 -27 5 10 2
39 -9 55 -23 32z"/>
<path d="M596 7245 c-21 -31 -20 -35 4 -35 11 0 20 -6 20 -12 0 -10 2 -10 8 0
10 15 3 72 -8 72 -4 0 -15 -11 -24 -25z m24 -10 c0 -8 -7 -15 -16 -15 -14 0
-14 3 -4 15 7 8 14 15 16 15 2 0 4 -7 4 -15z"/>
<path d="M4678 7263 c-2 -5 -1 -24 3 -43 l6 -35 2 43 c1 39 -3 52 -11 35z"/>
<path d="M4918 7263 c-2 -5 -1 -24 3 -43 l6 -35 2 43 c1 39 -3 52 -11 35z"/>
<path d="M488 7223 c7 -3 16 -2 19 1 4 3 -2 6 -13 5 -11 0 -14 -3 -6 -6z"/>
<path d="M1250 7175 c0 -40 2 -45 23 -45 29 0 47 18 47 45 0 27 -18 45 -47 45
-21 0 -23 -5 -23 -45z m55 16 c8 -26 -4 -51 -26 -51 -15 0 -19 7 -19 35 0 28
4 35 19 35 11 0 22 -8 26 -19z"/>
<path d="M1445 7210 c-4 -6 -4 -14 -1 -17 3 -4 6 -1 6 5 0 7 7 12 15 12 22 0
18 -28 -5 -42 -29 -18 -25 -38 8 -37 l27 1 -25 7 -24 7 23 16 c13 9 21 24 19
34 -4 22 -33 31 -43 14z"/>
<path d="M1510 7196 c0 -17 5 -23 18 -22 9 0 17 -6 17 -14 0 -9 -8 -14 -19
-13 -12 1 -15 -2 -8 -9 16 -16 42 -2 42 23 0 12 -8 23 -20 26 -27 7 -25 21 3
26 19 4 18 4 -5 6 -23 1 -28 -3 -28 -23z"/>
<path d="M1579 7218 c-1 -2 -3 -20 -4 -41 -3 -27 0 -40 11 -44 18 -7 46 16 37
31 -4 6 -7 20 -8 31 0 11 -8 21 -17 23 -10 2 -18 2 -19 0z m31 -23 c0 -8 -4
-15 -9 -15 -13 0 -22 16 -14 24 11 11 23 6 23 -9z m1 -40 c-1 -15 -24 -12 -29
3 -3 9 2 13 12 10 10 -1 17 -7 17 -13z"/>
<path d="M5500 7175 c0 -41 2 -45 25 -45 17 0 29 8 36 24 15 32 -4 66 -36 66
-23 0 -25 -4 -25 -45z m53 13 c8 -12 7 -21 -2 -32 -23 -28 -41 -19 -41 20 0
28 4 35 16 32 9 -2 22 -10 27 -20z"/>
<path d="M5695 7209 c-4 -6 -4 -13 -1 -16 3 -4 6 -1 6 5 0 7 7 12 15 12 20 0
19 -29 0 -36 -9 -4 -20 -15 -26 -25 -9 -17 -6 -19 23 -18 25 1 27 3 10 6 l-24
5 22 23 c13 14 20 31 17 39 -7 18 -33 21 -42 5z"/>
<path d="M5762 7208 c-30 -30 1 -94 33 -68 25 20 13 80 -15 80 -3 0 -11 -5
-18 -12z m33 -33 c0 -32 -19 -45 -29 -19 -9 22 3 56 17 51 7 -2 12 -16 12 -32z"/>
<path d="M5829 7218 c-1 -2 -3 -20 -4 -41 -3 -27 0 -40 11 -44 18 -7 46 16 37
31 -4 6 -7 20 -8 31 0 11 -8 21 -17 23 -10 2 -18 2 -19 0z m31 -23 c0 -8 -4
-15 -9 -15 -13 0 -22 16 -14 24 11 11 23 6 23 -9z m1 -40 c-1 -15 -24 -12 -29
3 -3 9 2 13 12 10 10 -1 17 -7 17 -13z"/>
<path d="M1345 7200 c-3 -5 -2 -10 4 -10 5 0 12 -15 14 -32 3 -29 4 -27 5 10
2 39 -9 55 -23 32z"/>
<path d="M5595 7200 c-3 -5 -2 -10 4 -10 5 0 12 -15 14 -32 3 -29 4 -27 5 10
2 39 -9 55 -23 32z"/>
<path d="M1408 7163 c7 -3 16 -2 19 1 4 3 -2 6 -13 5 -11 0 -14 -3 -6 -6z"/>
<path d="M1588 7053 l-3 -58 -252 -3 c-221 -2 -253 0 -253 13 0 8 -7 15 -15
15 -11 0 -15 -12 -15 -45 0 -33 4 -45 15 -45 8 0 15 7 15 15 0 13 35 15 255
15 l255 0 0 -55 c0 -42 3 -55 15 -55 13 0 15 21 15 130 0 107 -3 130 -15 130
-10 0 -15 -15 -17 -57z"/>
<path d="M5837 7103 c-4 -3 -7 -30 -7 -60 l0 -53 -250 0 c-216 0 -250 2 -250
15 0 8 -7 15 -15 15 -11 0 -15 -12 -15 -45 0 -33 4 -45 15 -45 8 0 15 7 15 15
0 13 35 15 255 15 l255 0 0 -55 c0 -42 3 -55 15 -55 13 0 15 21 15 130 0 102
-3 130 -13 130 -8 0 -17 -3 -20 -7z"/>
<path d="M340 6970 c0 -109 2 -130 15 -130 12 0 15 13 15 60 l0 60 249 0 c240
0 249 -1 254 -20 12 -45 37 -9 37 53 0 20 -5 27 -20 27 -11 0 -20 -7 -20 -15
0 -13 -34 -15 -250 -15 l-250 0 0 55 c0 42 -3 55 -15 55 -13 0 -15 -21 -15
-130z"/>
<path d="M4587 7018 c-12 -149 -10 -178 13 -178 18 0 20 7 20 60 l0 60 250 0
c243 0 250 -1 250 -20 0 -11 7 -20 15 -20 11 0 15 12 15 50 0 38 -4 50 -15 50
-8 0 -15 -7 -15 -15 0 -13 -34 -15 -249 -15 l-250 0 -3 52 c-5 84 -24 69 -31
-24z"/>
<path d="M1250 6795 c0 -40 2 -45 23 -45 29 0 47 18 47 45 0 27 -18 45 -47 45
-21 0 -23 -5 -23 -45z m55 16 c8 -26 -4 -51 -26 -51 -15 0 -19 7 -19 35 0 28
4 35 19 35 11 0 22 -8 26 -19z"/>
<path d="M1445 6830 c-4 -6 -4 -14 -1 -17 3 -4 6 -1 6 5 0 7 7 12 15 12 22 0
18 -28 -5 -42 -29 -18 -25 -38 8 -37 l27 1 -25 7 -24 7 23 16 c13 9 21 24 19
34 -4 22 -33 31 -43 14z"/>
<path d="M1510 6816 c0 -17 5 -23 18 -22 9 0 17 -6 17 -14 0 -9 -8 -14 -19
-13 -12 1 -15 -2 -8 -9 16 -16 42 -2 42 23 0 12 -8 23 -20 26 -27 7 -25 21 3
26 19 4 18 4 -5 6 -23 1 -28 -3 -28 -23z"/>
<path d="M1588 6833 c26 -5 26 -1 6 -49 -21 -50 -7 -37 17 16 l18 40 -32 -1
c-24 -1 -26 -3 -9 -6z"/>
<path d="M5500 6795 c0 -41 2 -45 25 -45 17 0 29 8 36 24 15 32 -4 66 -36 66
-23 0 -25 -4 -25 -45z m53 13 c8 -12 7 -21 -2 -32 -23 -28 -41 -19 -41 20 0
28 4 35 16 32 9 -2 22 -10 27 -20z"/>
<path d="M5695 6829 c-4 -6 -4 -13 -1 -16 3 -4 6 -1 6 5 0 7 7 12 15 12 20 0
19 -29 0 -36 -9 -4 -20 -15 -26 -25 -9 -17 -6 -19 23 -18 25 1 27 3 10 6 l-24
5 22 23 c13 14 20 31 17 39 -7 18 -33 21 -42 5z"/>
<path d="M5762 6828 c-30 -30 1 -94 33 -68 25 20 13 80 -15 80 -3 0 -11 -5
-18 -12z m33 -33 c0 -32 -19 -45 -29 -19 -9 22 3 56 17 51 7 -2 12 -16 12 -32z"/>
<path d="M5827 6833 c-14 -14 -6 -45 13 -50 11 -3 20 -10 20 -15 0 -5 -10 -6
-21 -3 -15 5 -19 4 -15 -4 23 -36 66 21 46 60 -11 19 -31 25 -43 12z m33 -23
c0 -21 -15 -27 -25 -10 -7 12 2 30 16 30 5 0 9 -9 9 -20z"/>
<path d="M1345 6820 c-3 -5 -2 -10 4 -10 5 0 12 -15 14 -32 3 -29 4 -27 5 10
2 39 -9 55 -23 32z"/>
<path d="M5595 6820 c-3 -5 -2 -10 4 -10 5 0 12 -15 14 -32 3 -29 4 -27 5 10
2 39 -9 55 -23 32z"/>
<path d="M1408 6783 c7 -3 16 -2 19 1 4 3 -2 6 -13 5 -11 0 -14 -3 -6 -6z"/>
<path d="M330 6735 c0 -40 2 -45 23 -45 29 0 47 18 47 45 0 27 -18 45 -47 45
-21 0 -23 -5 -23 -45z m55 16 c8 -26 -4 -51 -26 -51 -15 0 -19 7 -19 35 0 28
4 35 19 35 11 0 22 -8 26 -19z"/>
<path d="M525 6770 c-4 -6 -4 -14 -1 -17 3 -4 6 -1 6 5 0 7 7 12 15 12 22 0
18 -28 -5 -42 -29 -18 -25 -38 8 -37 l27 1 -25 7 -24 7 23 16 c13 9 21 24 19
34 -4 22 -33 31 -43 14z"/>
<path d="M4580 6735 c0 -45 1 -46 28 -43 24 3 27 7 27 43 0 36 -3 40 -27 43
-27 3 -28 2 -28 -43z m45 0 c0 -20 -6 -31 -17 -33 -15 -3 -18 4 -18 33 0 29 3
36 18 33 11 -2 17 -13 17 -33z"/>
<path d="M4775 6769 c-4 -6 -4 -13 -1 -16 3 -4 6 -1 6 5 0 7 7 12 15 12 20 0
19 -29 0 -36 -9 -4 -20 -15 -26 -25 -9 -17 -6 -19 23 -18 25 1 27 3 10 6 l-24
5 22 23 c13 14 20 31 17 39 -7 18 -33 21 -42 5z"/>
<path d="M4837 6773 c-4 -3 -7 -11 -7 -17 0 -6 5 -5 12 2 7 7 16 12 20 12 15
0 8 -27 -12 -45 -28 -26 -25 -35 13 -34 31 2 31 2 4 6 l-28 4 25 24 c16 15 23
30 20 39 -6 16 -35 22 -47 9z"/>
<path d="M4905 6770 c-4 -6 -4 -14 -1 -17 3 -4 6 -1 6 5 0 7 7 12 15 12 22 0
18 -28 -5 -42 -29 -18 -25 -38 8 -37 l27 1 -25 7 -24 7 23 16 c13 9 21 24 19
34 -4 22 -33 31 -43 14z"/>
<path d="M425 6760 c-3 -5 -2 -10 4 -10 5 0 12 -15 14 -32 3 -29 4 -27 5 10 2
39 -9 55 -23 32z"/>
<path d="M596 6745 c-21 -31 -20 -35 4 -35 11 0 20 -6 20 -12 0 -10 2 -10 8 0
10 15 3 72 -8 72 -4 0 -15 -11 -24 -25z m24 -10 c0 -8 -7 -15 -16 -15 -14 0
-14 3 -4 15 7 8 14 15 16 15 2 0 4 -7 4 -15z"/>
<path d="M668 6750 c-22 -30 -23 -40 -3 -40 8 0 15 -5 15 -10 0 -6 6 -5 14 2
8 7 10 15 6 18 -4 3 -10 16 -11 30 l-4 25 -17 -25z m12 -15 c0 -8 -4 -15 -10
-15 -5 0 -7 7 -4 15 4 8 8 15 10 15 2 0 4 -7 4 -15z"/>
<path d="M4678 6763 c-2 -5 -1 -24 3 -43 l6 -35 2 43 c1 39 -3 52 -11 35z"/>
<path d="M488 6723 c7 -3 16 -2 19 1 4 3 -2 6 -13 5 -11 0 -14 -3 -6 -6z"/>
<path d="M330 6545 c0 -40 2 -45 23 -45 29 0 47 18 47 45 0 27 -18 45 -47 45
-21 0 -23 -5 -23 -45z m55 16 c8 -26 -4 -51 -26 -51 -15 0 -19 7 -19 35 0 28
4 35 19 35 11 0 22 -8 26 -19z"/>
<path d="M525 6580 c-4 -6 -4 -14 -1 -17 3 -4 6 -1 6 5 0 7 7 12 15 12 22 0
18 -28 -5 -42 -29 -18 -25 -38 8 -37 l27 1 -25 7 -24 7 23 16 c13 9 21 24 19
34 -4 22 -33 31 -43 14z"/>
<path d="M657 6584 c-4 -4 -7 -12 -7 -18 0 -6 5 -5 12 2 7 7 16 12 20 12 13 0
9 -28 -4 -33 -10 -4 -10 -6 0 -6 17 -1 15 -31 -2 -31 -8 0 -17 6 -19 13 -4 9
-6 9 -6 -1 -1 -18 27 -26 43 -13 9 8 11 22 7 44 -6 30 -29 46 -44 31z"/>
<path d="M4580 6545 c0 -45 1 -46 28 -43 24 3 27 7 27 43 0 36 -3 40 -27 43
-27 3 -28 2 -28 -43z m45 0 c0 -20 -6 -31 -17 -33 -15 -3 -18 4 -18 33 0 29 3
36 18 33 11 -2 17 -13 17 -33z"/>
<path d="M4775 6579 c-4 -6 -4 -13 -1 -16 3 -4 6 -1 6 5 0 7 7 12 15 12 20 0
19 -29 0 -36 -9 -4 -20 -15 -26 -25 -9 -17 -6 -19 23 -18 25 1 27 3 10 6 l-24
5 22 23 c13 14 20 31 17 39 -7 18 -33 21 -42 5z"/>
<path d="M4837 6583 c-4 -3 -7 -11 -7 -17 0 -6 5 -5 12 2 7 7 16 12 20 12 15
0 8 -27 -12 -45 -28 -26 -25 -35 13 -34 31 2 31 2 4 6 l-28 4 25 24 c16 15 23
30 20 39 -6 16 -35 22 -47 9z"/>
<path d="M4905 6580 c-4 -6 -4 -14 -1 -17 3 -4 6 -1 6 5 0 7 7 12 15 12 18 0
19 -12 3 -28 -9 -9 -9 -12 0 -12 7 0 12 -7 12 -15 0 -17 -26 -21 -33 -5 -3 6
-4 5 -3 -2 2 -7 11 -13 22 -13 16 0 19 7 19 40 0 29 -4 41 -17 43 -9 2 -19 -2
-23 -8z"/>
<path d="M425 6570 c-3 -5 -2 -10 4 -10 5 0 12 -15 14 -32 3 -29 4 -27 5 10 2
39 -9 55 -23 32z"/>
<path d="M596 6555 c-21 -31 -20 -35 4 -35 11 0 20 -6 20 -12 0 -10 2 -10 8 0
10 15 3 72 -8 72 -4 0 -15 -11 -24 -25z m24 -10 c0 -8 -7 -15 -16 -15 -14 0
-14 3 -4 15 7 8 14 15 16 15 2 0 4 -7 4 -15z"/>
<path d="M4678 6573 c-2 -5 -1 -24 3 -43 l6 -35 2 43 c1 39 -3 52 -11 35z"/>
<path d="M488 6533 c7 -3 16 -2 19 1 4 3 -2 6 -13 5 -11 0 -14 -3 -6 -6z"/>
<path d="M1250 6485 c0 -40 2 -45 23 -45 29 0 47 18 47 45 0 27 -18 45 -47 45
-21 0 -23 -5 -23 -45z m55 16 c8 -26 -4 -51 -26 -51 -15 0 -19 7 -19 35 0 28
4 35 19 35 11 0 22 -8 26 -19z"/>
<path d="M1445 6520 c-4 -6 -4 -14 -1 -17 3 -4 6 -1 6 5 0 7 7 12 15 12 22 0
18 -28 -5 -42 -29 -18 -25 -38 8 -37 l27 1 -25 7 -24 7 23 16 c13 9 21 24 19
34 -4 22 -33 31 -43 14z"/>
<path d="M1510 6506 c0 -17 5 -23 18 -22 9 0 17 -6 17 -14 0 -9 -8 -14 -19
-13 -12 1 -15 -2 -8 -9 16 -16 42 -2 42 23 0 12 -8 23 -20 26 -27 7 -25 21 3
26 19 4 18 4 -5 6 -23 1 -28 -3 -28 -23z"/>
<path d="M1582 6518 c-21 -21 -11 -78 13 -78 7 0 18 7 25 15 15 19 -5 49 -27
40 -9 -3 -13 0 -10 7 2 7 11 12 20 12 9 -1 14 2 11 7 -7 12 -18 11 -32 -3z
m28 -48 c0 -21 -15 -27 -25 -10 -7 12 2 30 16 30 5 0 9 -9 9 -20z"/>
<path d="M5500 6485 c0 -41 2 -45 25 -45 17 0 29 8 36 24 15 32 -4 66 -36 66
-23 0 -25 -4 -25 -45z m53 13 c8 -12 7 -21 -2 -32 -23 -28 -41 -19 -41 20 0
28 4 35 16 32 9 -2 22 -10 27 -20z"/>
<path d="M5695 6519 c-4 -6 -4 -13 -1 -16 3 -4 6 -1 6 5 0 7 7 12 15 12 20 0
19 -29 0 -36 -9 -4 -20 -15 -26 -25 -9 -17 -6 -19 23 -18 25 1 27 3 10 6 l-24
5 22 23 c13 14 20 31 17 39 -7 18 -33 21 -42 5z"/>
<path d="M5770 6515 c-8 -9 -8 -15 -2 -15 6 0 13 -15 15 -32 3 -25 4 -22 5 15
2 51 1 54 -18 32z"/>
<path d="M5824 6506 c-8 -34 4 -68 23 -64 21 4 32 38 22 66 -11 29 -37 28 -45
-2z m36 -22 c0 -24 -4 -34 -12 -32 -24 8 -22 68 2 68 5 0 10 -16 10 -36z"/>
<path d="M1345 6510 c-3 -5 -2 -10 4 -10 5 0 12 -15 14 -32 3 -29 4 -27 5 10
2 39 -9 55 -23 32z"/>
<path d="M5595 6510 c-3 -5 -2 -10 4 -10 5 0 12 -15 14 -32 3 -29 4 -27 5 10
2 39 -9 55 -23 32z"/>
<path d="M1408 6473 c7 -3 16 -2 19 1 4 3 -2 6 -13 5 -11 0 -14 -3 -6 -6z"/>
<path d="M1588 6363 l-3 -58 -248 -3 c-244 -2 -249 -2 -254 18 -9 36 -28 16
-31 -33 -2 -37 0 -47 12 -47 9 0 16 7 16 15 0 13 35 15 255 15 l255 0 0 -55
c0 -42 3 -55 15 -55 13 0 15 21 15 130 0 107 -3 130 -15 130 -10 0 -15 -15
-17 -57z"/>
<path d="M5837 6413 c-4 -3 -7 -30 -7 -60 l0 -53 -250 0 c-243 0 -250 1 -250
20 0 11 -7 20 -15 20 -11 0 -15 -12 -15 -50 0 -38 4 -50 15 -50 8 0 15 7 15
15 0 13 35 15 255 15 l255 0 0 -55 c0 -42 3 -55 15 -55 13 0 15 21 15 130 0
102 -3 130 -13 130 -8 0 -17 -3 -20 -7z"/>
<path d="M340 6280 c0 -109 2 -130 15 -130 12 0 15 13 15 60 l0 60 250 0 c216
0 250 -2 250 -15 0 -24 27 -18 34 8 12 44 7 67 -14 67 -11 0 -20 -7 -20 -15 0
-13 -34 -15 -250 -15 l-250 0 0 55 c0 42 -3 55 -15 55 -13 0 -15 -21 -15 -130z"/>
<path d="M4587 6328 c-12 -149 -10 -178 13 -178 18 0 20 7 20 60 l0 60 250 0
c216 0 250 -2 250 -15 0 -8 7 -15 15 -15 11 0 15 12 15 45 0 33 -4 45 -15 45
-8 0 -15 -7 -15 -15 0 -13 -34 -15 -250 -15 l-250 0 0 55 c0 40 -4 55 -14 55
-9 0 -15 -23 -19 -82z"/>
<path d="M1250 6105 c0 -40 2 -45 23 -45 29 0 47 18 47 45 0 27 -18 45 -47 45
-21 0 -23 -5 -23 -45z m55 16 c8 -26 -4 -51 -26 -51 -15 0 -19 7 -19 35 0 28
4 35 19 35 11 0 22 -8 26 -19z"/>
<path d="M1445 6140 c-4 -6 -4 -14 -1 -17 3 -4 6 -1 6 5 0 7 7 12 15 12 22 0
18 -28 -5 -42 -29 -18 -25 -38 8 -37 l27 1 -25 7 -24 7 23 16 c13 9 21 24 19
34 -4 22 -33 31 -43 14z"/>
<path d="M1510 6126 c0 -17 5 -23 18 -22 9 0 17 -6 17 -14 0 -9 -8 -14 -19
-13 -12 1 -15 -2 -8 -9 16 -16 42 -2 42 23 0 12 -8 23 -20 26 -27 7 -25 21 3
26 19 4 18 4 -5 6 -23 1 -28 -3 -28 -23z"/>
<path d="M1576 6134 c-10 -26 -7 -32 14 -27 15 4 20 0 20 -17 0 -18 -4 -20
-22 -15 -19 6 -21 5 -10 -6 9 -10 17 -11 30 -3 24 16 21 36 -8 51 l-24 12 24
10 c23 9 23 10 4 10 -12 1 -25 -6 -28 -15z"/>
<path d="M5500 6105 c0 -41 2 -45 25 -45 17 0 29 8 36 24 15 32 -4 66 -36 66
-23 0 -25 -4 -25 -45z m53 13 c8 -12 7 -21 -2 -32 -23 -28 -41 -19 -41 20 0
28 4 35 16 32 9 -2 22 -10 27 -20z"/>
<path d="M5695 6139 c-4 -6 -4 -13 -1 -16 3 -4 6 -1 6 5 0 7 7 12 15 12 20 0
19 -29 0 -36 -9 -4 -20 -15 -26 -25 -9 -17 -6 -19 23 -18 25 1 27 3 10 6 l-24
5 22 23 c13 14 20 31 17 39 -7 18 -33 21 -42 5z"/>
<path d="M5770 6135 c-8 -9 -8 -15 -2 -15 6 0 13 -15 15 -32 3 -25 4 -22 5 15
2 51 1 54 -18 32z"/>
<path d="M1345 6130 c-3 -5 -2 -10 4 -10 5 0 12 -15 14 -32 3 -29 4 -27 5 10
2 39 -9 55 -23 32z"/>
<path d="M5595 6130 c-3 -5 -2 -10 4 -10 5 0 12 -15 14 -32 3 -29 4 -27 5 10
2 39 -9 55 -23 32z"/>
<path d="M5835 6130 c-3 -5 -2 -10 4 -10 5 0 12 -15 14 -32 3 -29 4 -27 5 10
2 39 -9 55 -23 32z"/>
<path d="M1408 6093 c7 -3 16 -2 19 1 4 3 -2 6 -13 5 -11 0 -14 -3 -6 -6z"/>
<path d="M330 6045 c0 -40 2 -45 23 -45 29 0 47 18 47 45 0 27 -18 45 -47 45
-21 0 -23 -5 -23 -45z m55 16 c8 -26 -4 -51 -26 -51 -15 0 -19 7 -19 35 0 28
4 35 19 35 11 0 22 -8 26 -19z"/>
<path d="M525 6080 c-4 -6 -4 -14 -1 -17 3 -4 6 -1 6 5 0 7 7 12 15 12 22 0
18 -28 -5 -42 -29 -18 -25 -38 8 -37 l27 1 -25 7 -24 7 23 16 c13 9 21 24 19
34 -4 22 -33 31 -43 14z"/>
<path d="M657 6083 c-4 -3 -7 -11 -7 -17 0 -6 5 -5 12 2 7 7 16 12 20 12 15 0
8 -27 -12 -45 -28 -26 -25 -35 13 -34 31 2 31 2 4 6 l-28 4 25 24 c16 15 23
30 20 39 -6 16 -35 22 -47 9z"/>
<path d="M4580 6045 c0 -45 1 -46 28 -43 24 3 27 7 27 43 0 36 -3 40 -27 43
-27 3 -28 2 -28 -43z m45 0 c0 -20 -6 -31 -17 -33 -15 -3 -18 4 -18 33 0 29 3
36 18 33 11 -2 17 -13 17 -33z"/>
<path d="M4775 6079 c-4 -6 -4 -13 -1 -16 3 -4 6 -1 6 5 0 7 7 12 15 12 20 0
19 -29 0 -36 -9 -4 -20 -15 -26 -25 -9 -17 -6 -19 23 -18 25 1 27 3 10 6 l-24
5 22 23 c13 14 20 31 17 39 -7 18 -33 21 -42 5z"/>
<path d="M4837 6083 c-4 -3 -7 -11 -7 -17 0 -6 5 -5 12 2 7 7 16 12 20 12 15
0 8 -27 -12 -45 -28 -26 -25 -35 13 -34 31 2 31 2 4 6 l-28 4 25 24 c16 15 23
30 20 39 -6 16 -35 22 -47 9z"/>
<path d="M425 6070 c-3 -5 -2 -10 4 -10 5 0 12 -15 14 -32 3 -29 4 -27 5 10 2
39 -9 55 -23 32z"/>
<path d="M596 6055 c-21 -31 -20 -35 4 -35 11 0 20 -6 20 -12 0 -10 2 -10 8 0
10 15 3 72 -8 72 -4 0 -15 -11 -24 -25z m24 -10 c0 -8 -7 -15 -16 -15 -14 0
-14 3 -4 15 7 8 14 15 16 15 2 0 4 -7 4 -15z"/>
<path d="M4678 6073 c-2 -5 -1 -24 3 -43 l6 -35 2 43 c1 39 -3 52 -11 35z"/>
<path d="M4917 6060 c-21 -30 -22 -40 -3 -40 8 0 16 -5 18 -12 8 -22 14 16 8
47 l-5 30 -18 -25z m13 -15 c0 -8 -4 -15 -10 -15 -5 0 -7 7 -4 15 4 8 8 15 10
15 2 0 4 -7 4 -15z"/>
<path d="M488 6033 c7 -3 16 -2 19 1 4 3 -2 6 -13 5 -11 0 -14 -3 -6 -6z"/>
<path d="M330 5855 c0 -40 2 -45 23 -45 29 0 47 18 47 45 0 27 -18 45 -47 45
-21 0 -23 -5 -23 -45z m55 16 c8 -26 -4 -51 -26 -51 -15 0 -19 7 -19 35 0 28
4 35 19 35 11 0 22 -8 26 -19z"/>
<path d="M525 5890 c-4 -6 -4 -14 -1 -17 3 -4 6 -1 6 5 0 7 7 12 15 12 22 0
18 -28 -5 -42 -29 -18 -25 -38 8 -37 l27 1 -25 7 -24 7 23 16 c13 9 21 24 19
34 -4 22 -33 31 -43 14z"/>
<path d="M4580 5855 c0 -45 1 -46 28 -43 24 3 27 7 27 43 0 36 -3 40 -27 43
-27 3 -28 2 -28 -43z m45 0 c0 -20 -6 -31 -17 -33 -15 -3 -18 4 -18 33 0 29 3
36 18 33 11 -2 17 -13 17 -33z"/>
<path d="M4775 5889 c-4 -6 -4 -13 -1 -16 3 -4 6 -1 6 5 0 7 7 12 15 12 20 0
19 -29 0 -36 -9 -4 -20 -15 -26 -25 -9 -17 -6 -19 23 -18 25 1 27 3 10 6 l-24
5 22 23 c13 14 20 31 17 39 -7 18 -33 21 -42 5z"/>
<path d="M4837 5893 c-4 -3 -7 -11 -7 -17 0 -6 5 -5 12 2 7 7 16 12 20 12 15
0 8 -27 -12 -45 -28 -26 -25 -35 13 -34 31 2 31 2 4 6 l-28 4 25 24 c16 15 23
30 20 39 -6 16 -35 22 -47 9z"/>
<path d="M4900 5876 c0 -19 4 -23 20 -19 16 4 20 0 20 -17 0 -18 -4 -21 -21
-17 -16 4 -19 3 -11 -5 16 -16 42 -2 42 23 0 12 -8 23 -20 26 -27 7 -25 21 3
26 19 4 18 4 -5 6 -23 1 -28 -3 -28 -23z"/>
<path d="M425 5880 c-3 -5 -2 -10 4 -10 5 0 12 -15 14 -32 3 -29 4 -27 5 10 2
39 -9 55 -23 32z"/>
<path d="M596 5865 c-21 -31 -20 -35 4 -35 11 0 20 -6 20 -12 0 -10 2 -10 8 0
10 15 3 72 -8 72 -4 0 -15 -11 -24 -25z m24 -10 c0 -8 -7 -15 -16 -15 -14 0
-14 3 -4 15 7 8 14 15 16 15 2 0 4 -7 4 -15z"/>
<path d="M665 5880 c-3 -5 -2 -10 4 -10 5 0 12 -15 14 -32 3 -29 4 -27 5 10 2
39 -9 55 -23 32z"/>
<path d="M4678 5883 c-2 -5 -1 -24 3 -43 l6 -35 2 43 c1 39 -3 52 -11 35z"/>
<path d="M488 5843 c7 -3 16 -2 19 1 4 3 -2 6 -13 5 -11 0 -14 -3 -6 -6z"/>
<path d="M5500 5805 c0 -41 2 -45 25 -45 17 0 29 8 36 24 15 32 -4 66 -36 66
-23 0 -25 -4 -25 -45z m53 13 c8 -12 7 -21 -2 -32 -23 -28 -41 -19 -41 20 0
28 4 35 16 32 9 -2 22 -10 27 -20z"/>
<path d="M5695 5839 c-4 -6 -4 -13 -1 -16 3 -4 6 -1 6 5 0 7 7 12 15 12 20 0
19 -29 0 -36 -9 -4 -20 -15 -26 -25 -9 -17 -6 -19 23 -18 25 1 27 3 10 6 l-24
5 22 23 c13 14 20 31 17 39 -7 18 -33 21 -42 5z"/>
<path d="M5770 5835 c-8 -9 -8 -15 -2 -15 6 0 13 -15 15 -32 3 -25 4 -22 5 15
2 51 1 54 -18 32z"/>
<path d="M5827 5843 c-4 -3 -7 -11 -7 -17 0 -6 5 -5 12 2 7 7 16 12 20 12 15
0 8 -27 -12 -45 -28 -26 -25 -35 13 -34 31 2 31 2 4 6 l-28 4 25 24 c16 15 23
30 20 39 -6 16 -35 22 -47 9z"/>
<path d="M5595 5830 c-3 -5 -2 -10 4 -10 5 0 12 -15 14 -32 3 -29 4 -27 5 10
2 39 -9 55 -23 32z"/>
<path d="M1220 5775 c0 -45 1 -46 28 -43 24 3 27 7 27 43 0 36 -3 40 -27 43
-27 3 -28 2 -28 -43z m45 0 c0 -20 -6 -31 -17 -33 -15 -3 -18 4 -18 33 0 29 3
36 18 33 11 -2 17 -13 17 -33z"/>
<path d="M1410 5805 c-8 -9 -8 -15 -2 -15 6 0 12 6 15 13 3 9 7 9 17 0 10 -9
7 -16 -14 -34 -34 -30 -33 -39 7 -38 23 1 26 3 10 6 -28 5 -29 10 -1 32 13 11
19 24 15 34 -8 21 -31 22 -47 2z"/>
<path d="M1476 5804 c-10 -26 -7 -32 14 -27 15 4 20 0 20 -17 0 -18 -4 -20
-22 -15 -19 6 -21 5 -10 -6 9 -10 17 -11 30 -3 24 16 21 36 -8 51 l-24 12 24
10 c23 9 23 10 4 10 -12 1 -25 -6 -28 -15z"/>
<path d="M1318 5803 c-2 -5 -1 -24 3 -43 l6 -35 2 43 c1 39 -3 52 -11 35z"/>
<path d="M1557 5790 c-21 -30 -22 -40 -3 -40 8 0 16 -5 18 -12 8 -22 14 16 8
47 l-5 30 -18 -25z m13 -15 c0 -8 -4 -15 -10 -15 -5 0 -7 7 -4 15 4 8 8 15 10
15 2 0 4 -7 4 -15z"/>
<path d="M1368 5763 c7 -3 16 -2 19 1 4 3 -2 6 -13 5 -11 0 -14 -3 -6 -6z"/>
<path d="M5837 5733 c-4 -3 -7 -30 -7 -60 l0 -53 -246 0 c-237 0 -246 1 -251
20 -3 11 -12 20 -19 20 -10 0 -14 -14 -14 -50 0 -38 4 -50 15 -50 8 0 15 7 15
15 0 13 35 15 255 15 l255 0 0 -55 c0 -42 3 -55 15 -55 13 0 15 21 15 130 0
102 -3 130 -13 130 -8 0 -17 -3 -20 -7z"/>
<path d="M340 5590 c0 -109 2 -130 15 -130 12 0 15 13 15 60 l0 60 250 0 c216
0 250 -2 250 -15 0 -24 27 -18 34 8 12 44 7 67 -14 67 -11 0 -20 -7 -20 -15 0
-13 -34 -15 -250 -15 l-250 0 0 55 c0 42 -3 55 -15 55 -13 0 -15 -21 -15 -130z"/>
<path d="M4585 5605 c-8 -119 -4 -150 18 -143 7 3 13 27 15 61 l3 57 249 0
c216 0 250 -2 250 -15 0 -8 7 -15 15 -15 11 0 15 12 15 45 0 33 -4 45 -15 45
-8 0 -15 -7 -15 -15 0 -13 -34 -15 -250 -15 l-250 0 0 55 c0 41 -4 55 -14 55
-11 0 -16 -26 -21 -115z"/>
<path d="M5500 5425 c0 -41 2 -45 25 -45 17 0 29 8 36 24 15 32 -4 66 -36 66
-23 0 -25 -4 -25 -45z m53 13 c8 -12 7 -21 -2 -32 -23 -28 -41 -19 -41 20 0
28 4 35 16 32 9 -2 22 -10 27 -20z"/>
<path d="M5695 5459 c-4 -6 -4 -13 -1 -16 3 -4 6 -1 6 5 0 7 7 12 15 12 20 0
19 -29 0 -36 -9 -4 -20 -15 -26 -25 -9 -17 -6 -19 23 -18 25 1 27 3 10 6 l-24
5 22 23 c13 14 20 31 17 39 -7 18 -33 21 -42 5z"/>
<path d="M5770 5455 c-8 -9 -8 -15 -2 -15 6 0 13 -15 15 -32 3 -25 4 -22 5 15
2 51 1 54 -18 32z"/>
<path d="M5827 5464 c-4 -4 -7 -12 -7 -18 0 -6 5 -5 12 2 7 7 16 12 20 12 13
0 9 -28 -4 -33 -10 -4 -10 -6 0 -6 17 -1 15 -31 -2 -31 -8 0 -17 6 -19 13 -4
9 -6 9 -6 -1 -1 -18 27 -26 43 -13 9 8 11 22 7 44 -6 30 -29 46 -44 31z"/>
<path d="M5595 5450 c-3 -5 -2 -10 4 -10 5 0 12 -15 14 -32 3 -29 4 -27 5 10
2 39 -9 55 -23 32z"/>
<path d="M330 5355 c0 -40 2 -45 23 -45 29 0 47 18 47 45 0 27 -18 45 -47 45
-21 0 -23 -5 -23 -45z m55 16 c8 -26 -4 -51 -26 -51 -15 0 -19 7 -19 35 0 28
4 35 19 35 11 0 22 -8 26 -19z"/>
<path d="M525 5390 c-4 -6 -4 -14 -1 -17 3 -4 6 -1 6 5 0 7 7 12 15 12 22 0
18 -28 -5 -42 -29 -18 -25 -38 8 -37 l27 1 -25 7 -24 7 23 16 c13 9 21 24 19
34 -4 22 -33 31 -43 14z"/>
<path d="M654 5376 c-8 -34 4 -68 23 -64 21 4 32 38 22 66 -11 29 -37 28 -45
-2z m36 -22 c0 -24 -4 -34 -12 -32 -24 8 -22 68 2 68 5 0 10 -16 10 -36z"/>
<path d="M4580 5355 c0 -45 1 -46 28 -43 24 3 27 7 27 43 0 36 -3 40 -27 43
-27 3 -28 2 -28 -43z m45 0 c0 -20 -6 -31 -17 -33 -15 -3 -18 4 -18 33 0 29 3
36 18 33 11 -2 17 -13 17 -33z"/>
<path d="M4775 5389 c-4 -6 -4 -13 -1 -16 3 -4 6 -1 6 5 0 7 7 12 15 12 20 0
19 -29 0 -36 -9 -4 -20 -15 -26 -25 -9 -17 -6 -19 23 -18 25 1 27 3 10 6 l-24
5 22 23 c13 14 20 31 17 39 -7 18 -33 21 -42 5z"/>
<path d="M4837 5393 c-4 -3 -7 -11 -7 -17 0 -6 5 -5 12 2 7 7 16 12 20 12 15
0 8 -27 -12 -45 -28 -26 -25 -35 13 -34 31 2 31 2 4 6 l-28 4 25 24 c16 15 23
30 20 39 -6 16 -35 22 -47 9z"/>
<path d="M4904 5386 c-3 -8 -4 -27 -2 -43 2 -20 8 -28 23 -28 29 0 34 45 6 52
-11 3 -18 10 -15 15 3 5 13 7 21 4 8 -3 11 -1 8 4 -9 15 -35 12 -41 -4z m36
-46 c0 -11 -7 -20 -15 -20 -15 0 -21 21 -8 33 12 13 23 7 23 -13z"/>
<path d="M425 5380 c-3 -5 -2 -10 4 -10 5 0 12 -15 14 -32 3 -29 4 -27 5 10 2
39 -9 55 -23 32z"/>
<path d="M596 5365 c-21 -31 -20 -35 4 -35 11 0 20 -6 20 -12 0 -10 2 -10 8 0
10 15 3 72 -8 72 -4 0 -15 -11 -24 -25z m24 -10 c0 -8 -7 -15 -16 -15 -14 0
-14 3 -4 15 7 8 14 15 16 15 2 0 4 -7 4 -15z"/>
<path d="M4678 5383 c-2 -5 -1 -24 3 -43 l6 -35 2 43 c1 39 -3 52 -11 35z"/>
<path d="M488 5343 c7 -3 16 -2 19 1 4 3 -2 6 -13 5 -11 0 -14 -3 -6 -6z"/>
<path d="M330 5165 c0 -40 2 -45 23 -45 29 0 47 18 47 45 0 27 -18 45 -47 45
-21 0 -23 -5 -23 -45z m55 16 c8 -26 -4 -51 -26 -51 -15 0 -19 7 -19 35 0 28
4 35 19 35 11 0 22 -8 26 -19z"/>
<path d="M525 5200 c-4 -6 -4 -14 -1 -17 3 -4 6 -1 6 5 0 7 7 12 15 12 22 0
18 -28 -5 -42 -29 -18 -25 -38 8 -37 l27 1 -25 7 -24 7 23 16 c13 9 21 24 19
34 -4 22 -33 31 -43 14z"/>
<path d="M585 5193 c-5 -15 -4 -16 6 -5 18 17 31 15 27 -5 -1 -10 1 -23 5 -30
11 -18 -12 -27 -30 -11 -14 11 -15 11 -11 -2 5 -18 36 -26 49 -13 5 5 6 25 2
46 -6 40 -35 52 -48 20z"/>
<path d="M657 5203 c-14 -14 -6 -45 13 -50 11 -3 20 -10 20 -15 0 -5 -10 -6
-21 -3 -15 5 -19 4 -15 -4 23 -36 66 21 46 60 -11 19 -31 25 -43 12z m33 -23
c0 -21 -15 -27 -25 -10 -7 12 2 30 16 30 5 0 9 -9 9 -20z"/>
<path d="M425 5190 c-3 -5 -2 -10 4 -10 5 0 12 -15 14 -32 3 -29 4 -27 5 10 2
39 -9 55 -23 32z"/>
<path d="M488 5153 c7 -3 16 -2 19 1 4 3 -2 6 -13 5 -11 0 -14 -3 -6 -6z"/>
<path d="M5500 5115 c0 -41 2 -45 25 -45 17 0 29 8 36 24 15 32 -4 66 -36 66
-23 0 -25 -4 -25 -45z m53 13 c8 -12 7 -21 -2 -32 -23 -28 -41 -19 -41 20 0
28 4 35 16 32 9 -2 22 -10 27 -20z"/>
<path d="M5695 5149 c-4 -6 -4 -13 -1 -16 3 -4 6 -1 6 5 0 7 7 12 15 12 20 0
19 -29 0 -36 -9 -4 -20 -15 -26 -25 -9 -17 -6 -19 23 -18 25 1 27 3 10 6 l-24
5 22 23 c13 14 20 31 17 39 -7 18 -33 21 -42 5z"/>
<path d="M5770 5145 c-8 -9 -8 -15 -2 -15 6 0 13 -15 15 -32 3 -25 4 -22 5 15
2 51 1 54 -18 32z"/>
<path d="M5595 5140 c-3 -5 -2 -10 4 -10 5 0 12 -15 14 -32 3 -29 4 -27 5 10
2 39 -9 55 -23 32z"/>
<path d="M5838 5130 c-22 -30 -23 -40 -3 -40 8 0 15 -5 15 -10 0 -6 6 -5 14 2
8 7 10 15 6 18 -4 3 -10 16 -11 30 l-4 25 -17 -25z m12 -15 c0 -8 -4 -15 -10
-15 -5 0 -7 7 -4 15 4 8 8 15 10 15 2 0 4 -7 4 -15z"/>
<path d="M1010 5010 c0 -47 3 -60 15 -60 11 0 15 12 15 45 l0 45 60 0 60 0 0
-135 0 -135 -60 0 -60 0 0 30 c0 20 -5 30 -15 30 -11 0 -15 -12 -15 -45 l0
-45 360 0 360 0 0 145 0 145 -30 0 c-32 0 -42 -23 -15 -34 12 -4 15 -27 15
-116 l0 -110 -120 0 -120 0 0 109 c0 88 3 110 15 115 8 3 15 13 15 21 0 13 -9
15 -42 13 -38 -3 -69 -28 -34 -28 14 0 16 -17 16 -115 l0 -115 -120 0 -120 0
0 150 0 150 -90 0 -90 0 0 -60z"/>
<path d="M1820 5057 c0 -15 15 -17 125 -17 l125 0 0 -135 0 -135 -125 0 c-104
0 -125 -2 -125 -15 0 -13 37 -15 275 -15 l275 0 0 46 c0 27 -4 43 -10 39 -5
-3 -10 -19 -10 -36 l0 -29 -130 0 -130 0 0 140 0 140 130 0 130 0 0 -25 c0
-14 5 -25 10 -25 6 0 10 16 10 35 l0 35 -72 0 c-40 0 -164 3 -275 7 -185 6
-203 5 -203 -10z"/>
<path d="M3850 5025 c0 -19 5 -35 10 -35 6 0 10 11 10 25 l0 25 105 0 105 0 0
-140 0 -140 -37 0 c-21 0 -68 3 -105 7 -67 6 -68 6 -68 35 0 17 -4 27 -10 23
-5 -3 -10 -21 -10 -40 l0 -33 58 -4 c31 -1 292 -1 580 1 438 3 522 5 522 17 0
12 -38 14 -215 14 l-215 0 0 125 0 125 215 0 c184 0 215 2 215 15 0 13 -36 15
-267 15 l-268 0 3 -140 4 -140 -186 0 -186 0 0 125 0 125 145 0 c122 0 145 2
145 15 0 13 -37 15 -275 15 l-275 0 0 -35z"/>
<path d="M5830 4995 l0 -55 -250 0 c-216 0 -250 2 -250 15 0 8 -7 15 -15 15
-11 0 -15 -12 -15 -50 0 -36 4 -50 14 -50 7 0 16 9 19 20 5 20 12 20 254 18
l248 -3 3 -58 c2 -40 7 -57 15 -54 8 2 13 43 15 130 2 122 2 127 -18 127 -18
0 -20 -6 -20 -55z"/>
<path d="M5122 4903 c2 -98 6 -138 16 -141 9 -3 12 29 12 137 0 120 -2 141
-15 141 -13 0 -15 -20 -13 -137z"/>
<path d="M2470 4786 l0 -46 650 0 650 0 0 46 c0 27 -4 43 -10 39 -5 -3 -10
-19 -10 -36 l0 -29 -630 0 -630 0 0 29 c0 17 -4 33 -10 36 -6 4 -10 -12 -10
-39z"/>
<path d="M5500 4735 c0 -41 2 -45 25 -45 17 0 29 8 36 24 15 32 -4 66 -36 66
-23 0 -25 -4 -25 -45z m53 13 c8 -12 7 -21 -2 -32 -23 -28 -41 -19 -41 20 0
28 4 35 16 32 9 -2 22 -10 27 -20z"/>
<path d="M5695 4769 c-4 -6 -4 -13 -1 -16 3 -4 6 -1 6 5 0 7 7 12 15 12 20 0
19 -29 0 -36 -9 -4 -20 -15 -26 -25 -9 -17 -6 -19 23 -18 25 1 27 3 10 6 l-24
5 22 23 c13 14 20 31 17 39 -7 18 -33 21 -42 5z"/>
<path d="M5770 4765 c-8 -9 -8 -15 -2 -15 6 0 13 -15 15 -32 3 -25 4 -22 5 15
2 51 1 54 -18 32z"/>
<path d="M5826 4764 c-10 -26 -7 -32 14 -27 15 4 20 0 20 -17 0 -18 -4 -20
-22 -15 -19 6 -21 5 -10 -6 9 -10 17 -11 30 -3 24 16 21 36 -8 51 l-24 12 24
10 c23 9 23 10 4 10 -12 1 -25 -6 -28 -15z"/>
<path d="M5595 4760 c-3 -5 -2 -10 4 -10 5 0 12 -15 14 -32 3 -29 4 -27 5 10
2 39 -9 55 -23 32z"/>
<path d="M1337 4573 c-4 -3 -7 -165 -7 -360 l0 -353 130 0 130 0 0 -45 0 -45
124 0 125 0 3 43 3 42 218 2 217 3 0 -45 0 -45 125 0 125 0 0 44 0 45 220 0
220 0 0 -44 0 -45 125 0 125 0 0 44 0 45 220 0 220 0 0 -44 0 -45 125 0 125 0
0 45 0 44 218 -2 217 -2 3 -42 3 -43 125 0 124 0 0 45 0 45 105 0 105 0 -2
358 -3 357 -107 3 c-103 3 -108 2 -108 -18 0 -19 6 -20 95 -20 l95 0 0 -325 0
-325 -94 0 c-103 0 -106 -2 -106 -66 l0 -34 -105 0 -105 0 0 53 0 52 -125 -4
-125 -3 0 326 0 325 93 3 c74 2 92 6 92 18 0 13 -30 15 -202 18 -198 2 -203 2
-203 -18 0 -19 6 -20 95 -20 l95 0 0 -325 0 -325 -94 0 c-103 0 -106 -2 -106
-66 l0 -34 -105 0 -105 0 0 53 0 52 -125 -4 -125 -3 0 326 0 325 93 3 c74 2
92 6 92 18 0 13 -29 15 -200 15 -171 0 -200 -2 -200 -15 0 -12 18 -16 93 -18
l92 -3 0 -324 0 -325 -94 0 c-103 0 -106 -2 -106 -66 l0 -34 -106 0 -107 0 6
53 7 52 -130 -4 -130 -3 0 326 0 325 93 3 c74 2 92 6 92 18 0 13 -29 15 -200
15 -171 0 -200 -2 -200 -15 0 -12 18 -16 93 -18 l92 -3 0 -324 0 -325 -94 0
c-103 0 -106 -2 -106 -66 l0 -34 -106 0 -107 0 6 53 7 52 -130 -4 -130 -3 0
326 0 326 95 0 c89 0 95 1 95 20 0 20 -5 20 -202 18 -173 -3 -203 -5 -203 -18
0 -12 18 -16 93 -18 l92 -3 0 -324 0 -325 -88 0 c-100 0 -112 -7 -112 -62 l0
-38 -106 0 -106 0 6 53 7 52 -131 -4 -130 -3 0 326 0 326 95 0 c88 0 95 1 95
20 0 19 -7 20 -103 20 -57 0 -107 -3 -110 -7z"/>
<path d="M1635 4570 c-8 -14 3 -30 21 -30 12 0 14 -39 14 -250 l0 -250 -55 0
c-42 0 -55 -3 -55 -15 0 -13 21 -15 125 -15 104 0 125 2 125 15 0 12 -13 15
-55 15 l-55 0 0 246 c0 218 2 248 17 259 9 7 13 17 9 23 -9 15 -82 16 -91 2z"/>
<path d="M2320 4560 c0 -13 7 -20 20 -20 19 0 20 -7 20 -250 l0 -250 -55 0
c-42 0 -55 -3 -55 -15 0 -13 21 -15 125 -15 104 0 125 2 125 15 0 12 -13 15
-55 15 l-55 0 0 246 c0 218 2 248 17 259 25 19 6 35 -43 35 -37 0 -44 -3 -44
-20z"/>
<path d="M3010 4561 c0 -12 7 -21 15 -21 13 0 15 -34 15 -250 l0 -250 -50 0
c-38 0 -50 -4 -50 -15 0 -13 21 -15 125 -15 104 0 125 2 125 15 0 12 -13 15
-60 15 l-60 0 0 249 c0 244 0 249 21 254 37 10 15 32 -34 35 -42 3 -47 1 -47
-17z"/>
<path d="M3700 4561 c0 -12 7 -21 15 -21 13 0 15 -34 15 -250 l0 -250 -50 0
c-38 0 -50 -4 -50 -15 0 -13 21 -15 125 -15 104 0 125 2 125 15 0 12 -13 15
-60 15 l-60 0 0 249 c0 244 0 249 21 254 37 10 15 32 -34 35 -42 3 -47 1 -47
-17z"/>
<path d="M4400 4560 c0 -11 7 -20 15 -20 13 0 15 -34 15 -250 l0 -250 -45 0
c-33 0 -45 -4 -45 -15 0 -12 20 -15 120 -15 100 0 120 3 120 15 0 12 -13 15
-60 15 l-60 0 0 250 c0 216 2 250 15 250 8 0 15 9 15 20 0 17 -7 20 -45 20
-38 0 -45 -3 -45 -20z"/>
<path d="M330 4485 c0 -40 2 -45 23 -45 29 0 47 18 47 45 0 27 -18 45 -47 45
-21 0 -23 -5 -23 -45z m55 16 c8 -26 -4 -51 -26 -51 -15 0 -19 7 -19 35 0 28
4 35 19 35 11 0 22 -8 26 -19z"/>
<path d="M525 4520 c-4 -6 -4 -14 -1 -17 3 -4 6 -1 6 5 0 7 7 12 15 12 22 0
18 -28 -5 -42 -29 -18 -25 -38 8 -37 l27 1 -25 7 -24 7 23 16 c13 9 21 24 19
34 -4 22 -33 31 -43 14z"/>
<path d="M585 4513 c-5 -15 -4 -16 6 -5 18 17 31 15 27 -5 -1 -10 1 -23 5 -30
11 -18 -12 -27 -30 -11 -14 11 -15 11 -11 -2 5 -18 36 -26 49 -13 5 5 6 25 2
46 -6 40 -35 52 -48 20z"/>
<path d="M659 4528 c-1 -2 -3 -20 -4 -41 -3 -27 0 -40 11 -44 18 -7 46 16 37
31 -4 6 -7 20 -8 31 0 11 -8 21 -17 23 -10 2 -18 2 -19 0z m31 -23 c0 -8 -4
-15 -9 -15 -13 0 -22 16 -14 24 11 11 23 6 23 -9z m1 -40 c-1 -15 -24 -12 -29
3 -3 9 2 13 12 10 10 -1 17 -7 17 -13z"/>
<path d="M425 4510 c-3 -5 -2 -10 4 -10 5 0 12 -15 14 -32 3 -29 4 -27 5 10 2
39 -9 55 -23 32z"/>
<path d="M488 4473 c7 -3 16 -2 19 1 4 3 -2 6 -13 5 -11 0 -14 -3 -6 -6z"/>
<path d="M5500 4425 c0 -41 2 -45 25 -45 17 0 29 8 36 24 15 32 -4 66 -36 66
-23 0 -25 -4 -25 -45z m53 13 c8 -12 7 -21 -2 -32 -23 -28 -41 -19 -41 20 0
28 4 35 16 32 9 -2 22 -10 27 -20z"/>
<path d="M5695 4459 c-4 -6 -4 -13 -1 -16 3 -4 6 -1 6 5 0 7 7 12 15 12 20 0
19 -29 0 -36 -9 -4 -20 -15 -26 -25 -9 -17 -6 -19 23 -18 25 1 27 3 10 6 l-24
5 22 23 c13 14 20 31 17 39 -7 18 -33 21 -42 5z"/>
<path d="M5770 4455 c-8 -9 -8 -15 -2 -15 6 0 13 -15 15 -32 3 -25 4 -22 5 15
2 51 1 54 -18 32z"/>
<path d="M5832 4458 c-21 -21 -11 -78 13 -78 7 0 18 7 25 15 15 19 -5 49 -27
40 -9 -3 -13 0 -10 7 2 7 11 12 20 12 9 -1 14 2 11 7 -7 12 -18 11 -32 -3z
m28 -48 c0 -21 -15 -27 -25 -10 -7 12 2 30 16 30 5 0 9 -9 9 -20z"/>
<path d="M5595 4450 c-3 -5 -2 -10 4 -10 5 0 12 -15 14 -32 3 -29 4 -27 5 10
2 39 -9 55 -23 32z"/>
<path d="M5830 4305 l0 -55 -250 0 c-216 0 -250 2 -250 15 0 8 -7 15 -15 15
-11 0 -15 -12 -15 -50 0 -36 4 -50 14 -50 7 0 16 9 19 20 5 20 12 20 254 18
l248 -3 3 -58 c2 -40 7 -57 15 -54 8 2 13 43 15 130 2 122 2 127 -18 127 -18
0 -20 -6 -20 -55z"/>
<path d="M340 4225 c0 -104 2 -125 15 -125 12 0 15 13 15 55 l0 55 250 0 c216
0 250 -2 250 -15 0 -24 27 -18 34 8 12 44 7 67 -14 67 -11 0 -20 -7 -20 -15 0
-13 -34 -15 -250 -15 l-250 0 0 55 c0 42 -3 55 -15 55 -13 0 -15 -21 -15 -125z"/>
<path d="M1390 4285 c0 -41 2 -45 25 -45 17 0 29 8 36 24 15 32 -4 66 -36 66
-23 0 -25 -4 -25 -45z m53 13 c8 -12 7 -21 -2 -32 -23 -28 -41 -19 -41 20 0
28 4 35 16 32 9 -2 22 -10 27 -20z"/>
<path d="M1740 4285 c0 -41 2 -45 25 -45 17 0 29 8 36 24 15 32 -4 66 -36 66
-23 0 -25 -4 -25 -45z m53 13 c8 -12 7 -21 -2 -32 -23 -28 -41 -19 -41 20 0
28 4 35 16 32 9 -2 22 -10 27 -20z"/>
<path d="M2080 4285 c0 -45 1 -46 28 -43 24 3 27 7 27 43 0 36 -3 40 -27 43
-27 3 -28 2 -28 -43z m45 0 c0 -20 -6 -31 -17 -33 -15 -3 -18 4 -18 33 0 29 3
36 18 33 11 -2 17 -13 17 -33z"/>
<path d="M2430 4285 c0 -45 1 -46 28 -43 24 3 27 7 27 43 0 36 -3 40 -27 43
-27 3 -28 2 -28 -43z m45 0 c0 -20 -6 -31 -17 -33 -15 -3 -18 4 -18 33 0 29 3
36 18 33 11 -2 17 -13 17 -33z"/>
<path d="M2770 4285 c0 -45 1 -46 28 -43 24 3 27 7 27 43 0 36 -3 40 -27 43
-27 3 -28 2 -28 -43z m45 0 c0 -20 -6 -31 -17 -33 -15 -3 -18 4 -18 33 0 29 3
36 18 33 11 -2 17 -13 17 -33z"/>
<path d="M3120 4285 c0 -45 1 -46 28 -43 24 3 27 7 27 43 0 36 -3 40 -27 43
-27 3 -28 2 -28 -43z m45 0 c0 -20 -6 -31 -17 -33 -15 -3 -18 4 -18 33 0 29 3
36 18 33 11 -2 17 -13 17 -33z"/>
<path d="M3450 4285 c0 -40 2 -45 23 -45 29 0 47 18 47 45 0 27 -18 45 -47 45
-21 0 -23 -5 -23 -45z m55 0 c0 -23 -5 -31 -22 -33 -20 -3 -23 1 -23 33 0 32
3 36 23 33 17 -2 22 -10 22 -33z"/>
<path d="M3800 4285 c0 -40 2 -45 23 -45 29 0 47 18 47 45 0 27 -18 45 -47 45
-21 0 -23 -5 -23 -45z m55 0 c0 -23 -5 -31 -22 -33 -20 -3 -23 1 -23 33 0 32
3 36 23 33 17 -2 22 -10 22 -33z"/>
<path d="M4140 4285 c0 -40 2 -45 23 -45 29 0 47 18 47 45 0 27 -18 45 -47 45
-21 0 -23 -5 -23 -45z m55 0 c0 -23 -5 -31 -22 -33 -20 -3 -23 1 -23 33 0 32
3 36 23 33 17 -2 22 -10 22 -33z"/>
<path d="M4240 4315 c-8 -9 -8 -15 -2 -15 6 0 13 -15 15 -32 3 -25 4 -22 5 15
2 51 1 54 -18 32z"/>
<path d="M4490 4285 c0 -40 2 -45 23 -45 29 0 47 18 47 45 0 27 -18 45 -47 45
-21 0 -23 -5 -23 -45z m55 0 c0 -23 -5 -31 -22 -33 -20 -3 -23 1 -23 33 0 32
3 36 23 33 17 -2 22 -10 22 -33z"/>
<path d="M4590 4315 c-8 -9 -8 -15 -2 -15 6 0 13 -15 15 -32 3 -25 4 -22 5 15
2 51 1 54 -18 32z"/>
<path d="M1488 4313 c-2 -5 -1 -24 3 -43 l6 -35 2 43 c1 39 -3 52 -11 35z"/>
<path d="M1838 4313 c-2 -5 -1 -24 3 -43 l6 -35 2 43 c1 39 -3 52 -11 35z"/>
<path d="M2178 4313 c-2 -5 -1 -24 3 -43 l6 -35 2 43 c1 39 -3 52 -11 35z"/>
<path d="M2528 4313 c-2 -5 -1 -24 3 -43 l6 -35 2 43 c1 39 -3 52 -11 35z"/>
<path d="M2860 4310 c-9 -6 -10 -10 -3 -10 6 0 14 -15 16 -32 3 -29 4 -27 5
10 1 23 1 42 0 42 -2 0 -10 -5 -18 -10z"/>
<path d="M3210 4310 c-9 -6 -10 -10 -3 -10 6 0 14 -15 16 -32 3 -29 4 -27 5
10 1 23 1 42 0 42 -2 0 -10 -5 -18 -10z"/>
<path d="M3550 4310 c-9 -6 -10 -10 -3 -10 6 0 14 -15 16 -32 3 -29 4 -27 5
10 1 23 1 42 0 42 -2 0 -10 -5 -18 -10z"/>
<path d="M3900 4310 c-9 -6 -10 -10 -3 -10 6 0 14 -15 16 -32 3 -29 4 -27 5
10 1 23 1 42 0 42 -2 0 -10 -5 -18 -10z"/>
<path d="M2918 4273 c7 -3 16 -2 19 1 4 3 -2 6 -13 5 -11 0 -14 -3 -6 -6z"/>
<path d="M3268 4273 c7 -3 16 -2 19 1 4 3 -2 6 -13 5 -11 0 -14 -3 -6 -6z"/>
<path d="M3608 4273 c7 -3 16 -2 19 1 4 3 -2 6 -13 5 -11 0 -14 -3 -6 -6z"/>
<path d="M3958 4273 c7 -3 16 -2 19 1 4 3 -2 6 -13 5 -11 0 -14 -3 -6 -6z"/>
<path d="M4298 4273 c7 -3 16 -2 19 1 4 3 -2 6 -13 5 -11 0 -14 -3 -6 -6z"/>
<path d="M4648 4273 c7 -3 16 -2 19 1 4 3 -2 6 -13 5 -11 0 -14 -3 -6 -6z"/>
<path d="M1390 4165 c-8 -9 -8 -15 -2 -15 6 0 12 6 15 13 3 9 7 9 17 0 10 -9
7 -16 -14 -34 -34 -30 -33 -39 7 -38 23 1 26 3 10 6 -28 5 -29 10 -1 32 13 11
19 24 15 34 -8 21 -31 22 -47 2z"/>
<path d="M1455 4170 c-4 -6 -4 -14 -1 -17 3 -4 6 -1 6 5 0 7 7 12 15 12 18 0
19 -12 3 -28 -9 -9 -9 -12 0 -12 7 0 12 -7 12 -15 0 -17 -26 -21 -33 -5 -3 6
-4 5 -3 -2 2 -7 11 -13 22 -13 16 0 19 7 19 40 0 29 -4 41 -17 43 -9 2 -19 -2
-23 -8z"/>
<path d="M1524 4166 c-3 -8 -4 -27 -2 -43 2 -20 8 -28 23 -28 29 0 34 45 6 52
-12 3 -21 10 -21 15 0 5 10 6 21 3 15 -5 19 -4 15 4 -10 16 -36 14 -42 -3z
m31 -46 c0 -7 -6 -15 -12 -17 -8 -3 -13 4 -13 17 0 13 5 20 13 18 6 -3 12 -11
12 -18z"/>
<path d="M1740 4165 c-8 -9 -8 -15 -2 -15 6 0 12 6 15 13 3 9 7 9 17 0 10 -9
7 -16 -14 -34 -34 -30 -33 -39 7 -38 23 1 26 3 10 6 -28 5 -29 10 -1 32 13 11
19 24 15 34 -8 21 -31 22 -47 2z"/>
<path d="M1805 4170 c-4 -6 -4 -14 -1 -17 3 -4 6 -1 6 5 0 7 7 12 15 12 18 0
19 -12 3 -28 -9 -9 -9 -12 0 -12 7 0 12 -7 12 -15 0 -17 -26 -21 -33 -5 -3 6
-4 5 -3 -2 2 -7 11 -13 22 -13 16 0 19 7 19 40 0 29 -4 41 -17 43 -9 2 -19 -2
-23 -8z"/>
<path d="M1870 4156 c0 -17 5 -23 18 -22 9 0 17 -6 17 -14 0 -9 -8 -14 -19
-13 -12 1 -15 -2 -8 -9 16 -16 42 -2 42 23 0 12 -8 23 -20 26 -27 7 -25 21 3
26 19 4 18 4 -5 6 -23 1 -28 -3 -28 -23z"/>
<path d="M2077 4173 c-4 -3 -7 -11 -7 -17 0 -6 5 -5 12 2 7 7 16 12 20 12 15
0 8 -27 -12 -45 -28 -26 -25 -35 13 -34 31 2 31 2 4 6 l-28 4 25 24 c16 15 23
30 20 39 -6 16 -35 22 -47 9z"/>
<path d="M2145 4170 c-4 -6 -4 -14 -1 -17 3 -4 6 -1 6 5 0 7 7 12 15 12 18 0
19 -12 3 -28 -9 -9 -9 -12 0 -12 7 0 12 -7 12 -15 0 -17 -26 -21 -33 -5 -3 6
-4 5 -3 -2 2 -7 11 -13 22 -13 16 0 19 7 19 40 0 29 -4 41 -17 43 -9 2 -19 -2
-23 -8z"/>
<path d="M2223 4150 c-20 -32 -21 -35 -5 -39 9 -2 20 -8 23 -13 10 -16 15 14
9 52 l-5 35 -22 -35z m13 -27 c-10 -10 -19 5 -10 18 6 11 8 11 12 0 2 -7 1
-15 -2 -18z"/>
<path d="M2427 4173 c-4 -3 -7 -11 -7 -17 0 -6 5 -5 12 2 7 7 16 12 20 12 15
0 8 -27 -12 -45 -28 -26 -25 -35 13 -34 31 2 31 2 4 6 l-28 4 25 24 c16 15 23
30 20 39 -6 16 -35 22 -47 9z"/>
<path d="M2495 4170 c-4 -6 -4 -14 -1 -17 3 -4 6 -1 6 5 0 7 7 12 15 12 18 0
19 -12 3 -28 -9 -9 -9 -12 0 -12 7 0 12 -7 12 -15 0 -17 -26 -21 -33 -5 -3 6
-4 5 -3 -2 2 -7 11 -13 22 -13 16 0 19 7 19 40 0 29 -4 41 -17 43 -9 2 -19 -2
-23 -8z"/>
<path d="M2567 4174 c-4 -4 -7 -12 -7 -18 0 -6 4 -5 9 3 5 7 14 10 20 6 9 -5
9 -10 0 -21 -8 -10 -8 -14 0 -14 6 0 11 -7 11 -16 0 -12 -6 -15 -21 -11 -16 4
-19 3 -11 -5 21 -21 41 -1 39 39 -3 36 -22 54 -40 37z"/>
<path d="M2767 4173 c-4 -3 -7 -11 -7 -17 0 -6 5 -5 12 2 7 7 16 12 20 12 15
0 8 -27 -12 -45 -28 -26 -25 -35 13 -34 31 2 31 2 4 6 l-28 4 25 24 c16 15 23
30 20 39 -6 16 -35 22 -47 9z"/>
<path d="M2837 4174 c-4 -4 -7 -12 -7 -18 0 -6 4 -5 9 3 5 7 14 10 20 6 9 -5
9 -10 0 -21 -8 -10 -8 -14 0 -14 6 0 11 -7 11 -16 0 -12 -6 -15 -21 -11 -16 4
-19 3 -11 -5 21 -21 41 -1 39 39 -3 36 -22 54 -40 37z"/>
<path d="M2900 4165 c-8 -9 -8 -15 -2 -15 6 0 12 6 15 13 3 9 7 9 17 0 10 -9
7 -16 -14 -34 -34 -30 -33 -39 7 -38 23 1 26 3 10 6 -28 5 -29 10 -1 32 13 11
19 24 15 34 -8 21 -31 22 -47 2z"/>
<path d="M3117 4173 c-4 -3 -7 -11 -7 -17 0 -6 5 -5 12 2 7 7 16 12 20 12 15
0 8 -27 -12 -45 -28 -26 -25 -35 13 -34 31 2 31 2 4 6 l-28 4 25 24 c16 15 23
30 20 39 -6 16 -35 22 -47 9z"/>
<path d="M3187 4174 c-4 -4 -7 -12 -7 -18 0 -6 4 -5 9 3 5 7 14 10 20 6 9 -5
9 -10 0 -21 -8 -10 -8 -14 0 -14 6 0 11 -7 11 -16 0 -12 -6 -15 -21 -11 -16 4
-19 3 -11 -5 21 -21 41 -1 39 39 -3 36 -22 54 -40 37z"/>
<path d="M3260 4165 c-8 -9 -8 -15 -2 -15 6 0 13 -15 15 -32 3 -25 4 -22 5 15
2 51 1 54 -18 32z"/>
<path d="M3455 4170 c-4 -6 -4 -14 -1 -17 3 -4 6 -1 6 5 0 7 7 12 15 12 22 0
18 -28 -5 -42 -29 -18 -25 -38 8 -37 l27 1 -25 7 -24 7 23 16 c13 9 21 24 19
34 -4 22 -33 31 -43 14z"/>
<path d="M3527 4174 c-4 -4 -7 -12 -7 -18 0 -6 4 -5 9 3 5 7 14 10 20 6 9 -5
9 -10 0 -21 -8 -10 -8 -14 0 -14 6 0 11 -7 11 -16 0 -12 -6 -15 -21 -11 -16 4
-19 3 -11 -5 21 -21 41 -1 39 39 -3 36 -22 54 -40 37z"/>
<path d="M3592 4168 c-30 -30 1 -94 33 -68 25 20 13 80 -15 80 -3 0 -11 -5
-18 -12z m33 -33 c0 -32 -19 -45 -29 -19 -9 22 3 56 17 51 7 -2 12 -16 12 -32z"/>
<path d="M3805 4170 c-4 -6 -4 -14 -1 -17 3 -4 6 -1 6 5 0 7 7 12 15 12 22 0
18 -28 -5 -42 -29 -18 -25 -38 8 -37 l27 1 -25 7 -24 7 23 16 c13 9 21 24 19
34 -4 22 -33 31 -43 14z"/>
<path d="M3875 4169 c-4 -6 -4 -13 -1 -16 3 -4 6 -1 6 5 0 7 7 12 15 12 20 0
19 -29 0 -36 -9 -4 -20 -15 -26 -25 -9 -17 -6 -19 23 -18 25 1 27 3 10 6 l-24
5 22 23 c13 14 20 31 17 39 -7 18 -33 21 -42 5z"/>
<path d="M3936 4165 c-8 -23 4 -45 26 -45 11 0 16 -4 13 -11 -4 -6 -13 -8 -21
-5 -8 3 -14 1 -14 -4 0 -14 24 -12 38 2 7 7 12 21 12 33 0 38 -42 61 -54 30z
m40 -6 c10 -17 -13 -36 -27 -22 -12 12 -4 33 11 33 5 0 12 -5 16 -11z"/>
<path d="M4145 4170 c-4 -6 -4 -14 -1 -17 3 -4 6 -1 6 5 0 7 7 12 15 12 22 0
18 -28 -5 -42 -29 -18 -25 -38 8 -37 l27 1 -25 7 -24 7 23 16 c13 9 21 24 19
34 -4 22 -33 31 -43 14z"/>
<path d="M4210 4165 c-8 -9 -8 -15 -2 -15 6 0 12 6 15 13 3 9 7 9 17 0 10 -9
7 -16 -14 -34 -34 -30 -33 -39 7 -38 23 1 26 3 10 6 -28 5 -29 10 -1 32 13 11
19 24 15 34 -8 21 -31 22 -47 2z"/>
<path d="M4279 4178 c-1 -2 -3 -20 -4 -41 -3 -27 0 -40 11 -44 18 -7 46 16 37
31 -4 6 -7 20 -8 31 0 11 -8 21 -17 23 -10 2 -18 2 -19 0z m31 -23 c0 -8 -4
-15 -9 -15 -13 0 -22 16 -14 24 11 11 23 6 23 -9z m1 -40 c-1 -15 -24 -12 -29
3 -3 9 2 13 12 10 10 -1 17 -7 17 -13z"/>
<path d="M4495 4170 c-4 -6 -4 -14 -1 -17 3 -4 6 -1 6 5 0 7 7 12 15 12 22 0
18 -28 -5 -42 -29 -18 -25 -38 8 -37 l27 1 -25 7 -24 7 23 16 c13 9 21 24 19
34 -4 22 -33 31 -43 14z"/>
<path d="M4560 4165 c-8 -9 -8 -15 -2 -15 6 0 12 6 15 13 3 9 7 9 17 0 10 -9
7 -16 -14 -34 -34 -30 -33 -39 7 -38 23 1 26 3 10 6 -28 5 -29 10 -1 32 13 11
19 24 15 34 -8 21 -31 22 -47 2z"/>
<path d="M4638 4173 c26 -5 26 -1 6 -49 -21 -50 -7 -37 17 16 l18 40 -32 -1
c-24 -1 -26 -3 -9 -6z"/>
<path d="M5500 4045 c0 -41 2 -45 25 -45 17 0 29 8 36 24 15 32 -4 66 -36 66
-23 0 -25 -4 -25 -45z m53 13 c8 -12 7 -21 -2 -32 -23 -28 -41 -19 -41 20 0
28 4 35 16 32 9 -2 22 -10 27 -20z"/>
<path d="M5695 4079 c-4 -6 -4 -13 -1 -16 3 -4 6 -1 6 5 0 7 7 12 15 12 20 0
19 -29 0 -36 -9 -4 -20 -15 -26 -25 -9 -17 -6 -19 23 -18 25 1 27 3 10 6 l-24
5 22 23 c13 14 20 31 17 39 -7 18 -33 21 -42 5z"/>
<path d="M5770 4075 c-8 -9 -8 -15 -2 -15 6 0 13 -15 15 -32 3 -25 4 -22 5 15
2 51 1 54 -18 32z"/>
<path d="M5838 4083 c26 -5 26 -1 6 -49 -21 -50 -7 -37 17 16 l18 40 -32 -1
c-24 -1 -26 -3 -9 -6z"/>
<path d="M5595 4070 c-3 -5 -2 -10 4 -10 5 0 12 -15 14 -32 3 -29 4 -27 5 10
2 39 -9 55 -23 32z"/>
<path d="M330 3985 c0 -40 2 -45 23 -45 29 0 47 18 47 45 0 27 -18 45 -47 45
-21 0 -23 -5 -23 -45z m55 16 c8 -26 -4 -51 -26 -51 -15 0 -19 7 -19 35 0 28
4 35 19 35 11 0 22 -8 26 -19z"/>
<path d="M525 4020 c-4 -6 -4 -14 -1 -17 3 -4 6 -1 6 5 0 7 7 12 15 12 22 0
18 -28 -5 -42 -29 -18 -25 -38 8 -37 l27 1 -25 7 -24 7 23 16 c13 9 21 24 19
34 -4 22 -33 31 -43 14z"/>
<path d="M585 4013 c-5 -15 -4 -16 6 -5 18 17 31 15 27 -5 -1 -10 1 -23 5 -30
11 -18 -12 -27 -30 -11 -14 11 -15 11 -11 -2 5 -18 36 -26 49 -13 5 5 6 25 2
46 -6 40 -35 52 -48 20z"/>
<path d="M668 4023 c26 -5 26 -1 6 -49 -21 -50 -7 -37 17 16 l18 40 -32 -1
c-24 -1 -26 -3 -9 -6z"/>
<path d="M425 4010 c-3 -5 -2 -10 4 -10 5 0 12 -15 14 -32 3 -29 4 -27 5 10 2
39 -9 55 -23 32z"/>
<path d="M488 3973 c7 -3 16 -2 19 1 4 3 -2 6 -13 5 -11 0 -14 -3 -6 -6z"/>
</g>
</svg>
